<!-- Created with Inkscape (http://www.inkscape.org/) -->
<svg xmlns:inkscape="http://www.inkscape.org/namespaces/inkscape" xmlns:sodipodi="http://sodipodi.sourceforge.net/DTD/sodipodi-0.dtd" xmlns="http://www.w3.org/2000/svg" xmlns:svg="http://www.w3.org/2000/svg" width="42.450218" height="31.545008" viewBox="0 0 42.450218 31.545008" version="1.1" id="svg1" sodipodi:docname="earthkit-workflows-light.svg" inkscape:version="1.3.2 (091e20e, 2023-11-25)">
  <sodipodi:namedview id="namedview1" pagecolor="#ffffff" bordercolor="#000000" borderopacity="0.25" inkscape:showpageshadow="2" inkscape:pageopacity="0.0" inkscape:pagecheckerboard="0" inkscape:deskcolor="#d1d1d1" inkscape:document-units="mm" inkscape:zoom="3.3662753" inkscape:cx="113.62707" inkscape:cy="83.772115" inkscape:window-width="1512" inkscape:window-height="863" inkscape:window-x="177" inkscape:window-y="38" inkscape:window-maximized="0" inkscape:current-layer="layer2" showguides="false">
    <sodipodi:guide position="12.702752,37.214004" orientation="1,0" id="guide23" inkscape:locked="false"/>
    <sodipodi:guide position="-13.005395,15.210232" orientation="0,-1" id="guide24" inkscape:locked="false"/>
    <sodipodi:guide position="-3.4643869,13.383221" orientation="0,-1" id="guide25" inkscape:locked="false"/>
    <sodipodi:guide position="0.68237925,6.9793543" orientation="0,-1" id="guide35" inkscape:locked="false"/>
    <sodipodi:guide position="14.487436,35.114376" orientation="1,0" id="guide37" inkscape:locked="false"/>
    <sodipodi:guide position="20.68134,-2.9413902" orientation="1,0" id="guide38" inkscape:locked="false"/>
    <sodipodi:guide position="6.8148268,20.308346" orientation="0,-1" id="guide49" inkscape:locked="false"/>
    <sodipodi:guide position="6.91887,21.634896" orientation="0,-1" id="guide50" inkscape:locked="false"/>
    <sodipodi:guide position="23.148404,5.4571236" orientation="0,-1" id="guide164" inkscape:locked="false"/>
    <sodipodi:guide position="22.203571,13.435712" orientation="1,0" id="guide165" inkscape:locked="false"/>
  </sodipodi:namedview>
  <defs id="defs1"/>
  <g inkscape:label="text" inkscape:groupmode="layer" id="layer1" transform="translate(-30.975453,-17.719192)" style="display:inline">
    <path style="fill:currentColor;stroke:none;stroke-width:0;stroke-linecap:square;stroke-dasharray:none" d="M 42.260316,67.25665 V 77.452879" id="path59"/>
    <text xml:space="preserve" style="font-style:normal;font-variant:normal;font-weight:normal;font-stretch:normal;font-size:11.2889px;font-family:'Varela Round';-inkscape-font-specification:'Varela Round';display:inline;fill:#a024a5;stroke:#a02c89;stroke-width:1.05833;stroke-linecap:square;stroke-opacity:1;fill-opacity:1" x="76.619011" y="42.032269" id="text1"><tspan sodipodi:role="line" id="tspan1" style="font-style:normal;font-variant:normal;font-weight:normal;font-stretch:normal;font-size:11.2889px;font-family:'Varela Round';-inkscape-font-specification:'Varela Round';fill:#a024a5;stroke:#a02c89;stroke-width:1.05833;stroke-opacity:1;fill-opacity:1" x="76.619011" y="42.032269">workflows</tspan></text>
  </g>
  <g inkscape:groupmode="layer" id="layer2" inkscape:label="frame" transform="translate(-30.975453,-17.719192)" style="display:inline">
    <g id="g12" style="stroke:#d283c2;stroke-width:2;stroke-dasharray:none;stroke-opacity:1;fill:none">
      <g id="g11" style="stroke:#d283c2;stroke-width:2;stroke-dasharray:none;stroke-opacity:1;fill:none">
        <path d="m 58.642415,23.159827 a 14.233227,14.233227 0 0 1 0.02377,0.01964 14.233227,14.233227 0 0 1 0.535367,0.483174 14.233227,14.233227 0 0 1 0.50953,0.510047 14.233227,14.233227 0 0 1 0.483691,0.534851 14.233227,14.233227 0 0 1 0.455787,0.559139 14.233227,14.233227 0 0 1 0.426847,0.58136 14.233227,14.233227 0 0 1 0.396875,0.60203 14.233227,14.233227 0 0 1 0.365869,0.621151 14.233227,14.233227 0 0 1 0.33383,0.639237 14.233227,14.233227 0 0 1 0.300757,0.655257 14.233227,14.233227 0 0 1 0.267684,0.669727 14.233227,14.233227 0 0 1 0.23306,0.682646 14.233227,14.233227 0 0 1 0.198438,0.692981 14.233227,14.233227 0 0 1 0.163297,0.702799 14.233227,14.233227 0 0 1 0.127124,0.709518 14.233227,14.233227 0 0 1 0.09095,0.715718 14.233227,14.233227 0 0 1 0.05478,0.718819 14.233227,14.233227 0 0 1 0.01809,0.720887 14.233227,14.233227 0 0 1 -0.144694,2.025716 14.233227,14.233227 0 0 1 -0.431499,1.984375 14.233227,14.233227 0 0 1 -0.710034,1.902726 14.233227,14.233227 0 0 1 -0.973067,1.78232 14.233227,14.233227 0 0 1 -1.21698,1.625741 14.233227,14.233227 0 0 1 -1.436088,1.436088 14.233227,14.233227 0 0 1 -0.187069,0.140043 l 2.83962,3.388423 a 18.639271,18.639271 0 0 0 1.67535,-1.591634 18.639271,18.639271 0 0 0 1.46606,-1.785937 18.639271,18.639271 0 0 0 1.233517,-1.954403 18.639271,18.639271 0 0 0 0.981852,-2.091345 18.639271,18.639271 0 0 0 0.716235,-2.197282 18.639271,18.639271 0 0 0 0.438217,-2.269112 18.639271,18.639271 0 0 0 0.154512,-2.305286 18.639271,18.639271 0 0 0 -0.0026,-0.404626 18.639271,18.639271 0 0 0 -0.01085,-0.404627 18.639271,18.639271 0 0 0 -0.02015,-0.404109 18.639271,18.639271 0 0 0 -0.02894,-0.403593 18.639271,18.639271 0 0 0 -0.03721,-0.403076 18.639271,18.639271 0 0 0 -0.04651,-0.402043 18.639271,18.639271 0 0 0 -0.05478,-0.400492 18.639271,18.639271 0 0 0 -0.06356,-0.399976 18.639271,18.639271 0 0 0 -0.07235,-0.397909 18.639271,18.639271 0 0 0 -0.08113,-0.396358 18.639271,18.639271 0 0 0 -0.0894,-0.394808 18.639271,18.639271 0 0 0 -0.09819,-0.392741 18.639271,18.639271 0 0 0 -0.106453,-0.390157 18.639271,18.639271 0 0 0 -0.115239,-0.38809 18.639271,18.639271 0 0 0 -0.123506,-0.385506 18.639271,18.639271 0 0 0 -0.131258,-0.382405 18.639271,18.639271 0 0 0 -0.140043,-0.379822 18.639271,18.639271 0 0 0 -0.148312,-0.376205 18.639271,18.639271 0 0 0 -0.156579,-0.373104 18.639271,18.639271 0 0 0 -0.164331,-0.370003 18.639271,18.639271 0 0 0 -0.1726,-0.365869 A 18.639271,18.639271 0 0 0 65.989752,25.49147 18.639271,18.639271 0 0 0 65.801668,25.13335 18.639271,18.639271 0 0 0 65.605815,24.778849 18.639271,18.639271 0 0 0 65.402209,24.429517 18.639271,18.639271 0 0 0 65.19137,24.084318 18.639271,18.639271 0 0 0 64.972778,23.74377 18.639271,18.639271 0 0 0 64.746952,23.407874 18.639271,18.639271 0 0 0 64.513892,23.077144 18.639271,18.639271 0 0 0 64.273596,22.751583 18.639271,18.639271 0 0 0 64.026583,22.431189 18.639271,18.639271 0 0 0 63.772335,22.115963 18.639271,18.639271 0 0 0 63.511369,21.806938 18.639271,18.639271 0 0 0 63.243685,21.50308 18.639271,18.639271 0 0 0 62.9698,21.205424 18.639271,18.639271 0 0 0 62.689197,20.913969 18.639271,18.639271 0 0 0 62.402393,20.628198 18.639271,18.639271 0 0 0 62.109387,20.349146 18.639271,18.639271 0 0 0 61.810697,20.076294 18.639271,18.639271 0 0 0 61.505806,19.81016 Z" style="fill:none;stroke:currentColor;stroke-width:2;stroke-linecap:square;stroke-linejoin:round;stroke-dasharray:none;stroke-opacity:1" id="path8"/>
        <path d="m 61.600374,26.902234 a 14.107161,14.107161 0 0 1 0.273369,0.483691 14.107161,14.107161 0 0 1 0.339514,0.684713 14.107161,14.107161 0 0 1 0.30179,0.701766 14.107161,14.107161 0 0 1 0.26355,0.717269 14.107161,14.107161 0 0 1 0.224276,0.730188 14.107161,14.107161 0 0 1 0.184485,0.741557 14.107161,14.107161 0 0 1 0.144177,0.750341 14.107161,14.107161 0 0 1 0.102836,0.75706 14.107161,14.107161 0 0 1 0.06201,0.761194 14.107161,14.107161 0 0 1 0.02067,0.763778 14.107161,14.107161 0 0 1 -0.173633,2.2071 14.107161,14.107161 0 0 1 -0.516764,2.152324 14.107161,14.107161 0 0 1 -0.846977,2.045353 14.107161,14.107161 0 0 1 -0.199987,0.326595 l 8.019665,4.188891 a 23.109167,23.109167 0 0 0 0.253731,-0.499711 23.109167,23.109167 0 0 0 0.240813,-0.505395 23.109167,23.109167 0 0 0 0.228926,-0.511597 23.109167,23.109167 0 0 0 0.216524,-0.516764 23.109167,23.109167 0 0 0 0.203606,-0.521932 23.109167,23.109167 0 0 0 0.191202,-0.526583 23.109167,23.109167 0 0 0 0.178284,-0.531234 23.109167,23.109167 0 0 0 0.165365,-0.535368 23.109167,23.109167 0 0 0 0.152445,-0.538985 23.109167,23.109167 0 0 0 0.13901,-0.543119 23.109167,23.109167 0 0 0 0.12609,-0.545703 23.109167,23.109167 0 0 0 0.112655,-0.548804 23.109167,23.109167 0 0 0 0.09922,-0.551387 23.109167,23.109167 0 0 0 0.08578,-0.553972 23.109167,23.109167 0 0 0 0.07286,-0.555521 23.109167,23.109167 0 0 0 0.05891,-0.557072 23.109167,23.109167 0 0 0 0.04548,-0.558106 23.109167,23.109167 0 0 0 0.03204,-0.559656 23.109167,23.109167 0 0 0 0.0186,-0.560172 23.109167,23.109167 0 0 0 0.0046,-0.560173 23.109167,23.109167 0 0 0 -0.0088,-0.560172 23.109167,23.109167 0 0 0 -0.02222,-0.559656 23.109167,23.109167 0 0 0 -0.03617,-0.559139 23.109167,23.109167 0 0 0 -0.04961,-0.558105 23.109167,23.109167 0 0 0 -0.06253,-0.556556 23.109167,23.109167 0 0 0 -0.07648,-0.555521 23.109167,23.109167 0 0 0 -0.08992,-0.552938 23.109167,23.109167 0 0 0 -0.103353,-0.550354 23.109167,23.109167 0 0 0 -0.116789,-0.548287 23.109167,23.109167 0 0 0 -0.129707,-0.545186 23.109167,23.109167 0 0 0 -0.143144,-0.541569 23.109167,23.109167 0 0 0 -0.156063,-0.537952 23.109167,23.109167 0 0 0 -0.168982,-0.534334 23.109167,23.109167 0 0 0 -0.181901,-0.529684 23.109167,23.109167 0 0 0 -0.19482,-0.525549 23.109167,23.109167 0 0 0 -0.207739,-0.520382 23.109167,23.109167 0 0 0 -0.220142,-0.515214 23.109167,23.109167 0 0 0 -0.232544,-0.510046 23.109167,23.109167 0 0 0 -0.244429,-0.503845 23.109167,23.109167 0 0 0 -0.256832,-0.497644 23.109167,23.109167 0 0 0 -0.269234,-0.49196 23.109167,23.109167 0 0 0 -0.280603,-0.484725 z" style="fill:none;fill-opacity:0;stroke:currentColor;stroke-width:2;stroke-linecap:square;stroke-linejoin:round;stroke-dasharray:none;stroke-opacity:1" id="path13"/>
        <path style="fill:none;stroke:currentColor;stroke-width:2;stroke-linecap:square;stroke-linejoin:round;stroke-dasharray:none;stroke-opacity:1" d="m 63.395655,35.866525 8.494705,1.730404" id="path10"/>
        <path style="fill:none;stroke:currentColor;stroke-width:2;stroke-linecap:square;stroke-linejoin:round;stroke-dasharray:none;stroke-opacity:1" d="m 63.395655,31.304555 8.337397,-1.573093" id="path11"/>
      </g>
      <path style="fill:none;stroke:currentColor;stroke-width:2;stroke-linecap:round;stroke-linejoin:round;stroke-dasharray:none;stroke-opacity:1" id="path12" sodipodi:type="arc" sodipodi:cx="49.237816" sodipodi:cy="33.978817" sodipodi:rx="17.230442" sodipodi:ry="17.230442" sodipodi:start="4.0660296" sodipodi:end="4.2294201" sodipodi:arc-type="arc" d="m 38.860193,20.224069 a 17.230442,17.230442 0 0 1 2.375624,-1.504877" sodipodi:open="true"/>
      <path style="fill:none;stroke:currentColor;stroke-width:2;stroke-linecap:round;stroke-linejoin:round;stroke-dasharray:none;stroke-opacity:1" id="path12-1" sodipodi:type="arc" sodipodi:cx="49.205894" sodipodi:cy="34.057484" sodipodi:rx="17.230442" sodipodi:ry="17.230442" sodipodi:start="3.0382093" sodipodi:end="3.3111615" sodipodi:arc-type="arc" d="m 32.067451,35.835653 a 17.230442,17.230442 0 0 1 0.155127,-4.685934" sodipodi:open="true"/>
      <path style="fill:none;stroke:currentColor;stroke-width:2;stroke-linecap:round;stroke-linejoin:round;stroke-dasharray:none;stroke-opacity:1" id="path12-18" sodipodi:type="arc" sodipodi:cx="49.193039" sodipodi:cy="33.944946" sodipodi:rx="17.230442" sodipodi:ry="17.230442" sodipodi:start="2.6616567" sodipodi:end="2.7961599" sodipodi:arc-type="arc" d="M 33.909215,41.900627 A 17.230442,17.230442 0 0 1 32.980416,39.779241" sodipodi:open="true"/>
      <g id="g1" style="stroke:#d283c2;stroke-width:2;stroke-dasharray:none;stroke-opacity:1;fill:none"/>
    </g>
  </g>
  <g inkscape:groupmode="layer" id="layer6" inkscape:label="flow">
    <path sodipodi:nodetypes="ccaaccaacaaccc" id="path3731-1" d="m 17.788654,17.499498 2.103163,-2.349933 c 0,0 3.353434,0.151162 4.507963,-0.898095 0.814153,-0.739912 1.100994,-2.077019 1.042593,-3.203256 -0.02071,-0.399438 -0.114477,-0.999312 -0.485084,-1.0876289 -0.707331,0.6541049 -1.359391,1.4991659 -2.172416,2.1278069 -0.632652,0.165198 -1.29303,-0.05632 -1.742123,-0.472206 -0.43698,-0.404662 -0.728552,-1.100487 -0.641036,-1.7039259 0.157974,-1.089274 2.410875,-1.603649 1.977228,-2.5788 -0.193527,-0.43522 -1.08878,-0.362645 -1.629697,-0.261073 -0.939961,0.176502 -1.977488,0.622568 -2.504012,1.455638 -0.746536,1.181141 -0.423967,4.2241119 -0.423967,4.2241119 l -2.315478,2.442399 z" style="display:inline;fill:none;stroke:none;stroke-width:0.499811;stroke-linecap:butt;stroke-linejoin:miter;stroke-miterlimit:4;stroke-dasharray:none;stroke-opacity:1"/>
    <path sodipodi:nodetypes="ccaaccaacaaccc" id="path15" d="m 17.474261,14.383287 2.103163,2.349933 c 0,0 3.353434,-0.151162 4.507963,0.898095 0.814153,0.739912 1.100994,2.077019 1.042593,3.203256 -0.02071,0.399438 -0.114477,0.999312 -0.485084,1.087629 -0.707331,-0.654105 -1.359391,-1.499166 -2.172416,-2.127807 -0.632652,-0.165198 -1.29303,0.05632 -1.742123,0.472206 -0.43698,0.404662 -0.728552,1.100487 -0.641036,1.703926 0.157974,1.089274 2.410875,1.603649 1.977228,2.5788 -0.193527,0.43522 -1.08878,0.362645 -1.629697,0.261073 C 19.494891,24.633896 18.457364,24.18783 17.93084,23.35476 17.184304,22.173619 17.506873,19.130648 17.506873,19.130648 l -2.315478,-2.442399 z" style="display:inline;fill:none;stroke:none;stroke-width:0.499811;stroke-linecap:butt;stroke-linejoin:miter;stroke-miterlimit:4;stroke-dasharray:none;stroke-opacity:1"/>
    <path style="fill:none;fill-opacity:1;stroke:currentColor;stroke-width:1.5875;stroke-linecap:square;stroke-dasharray:none;stroke-opacity:1" d="m 14.751843,9.6079521 c 0,0 4.29984,-0.040408 5.506737,-0.035763 1.206897,0.00465 1.422323,6.0288391 1.422323,6.0288391" id="path19" sodipodi:nodetypes="czc"/>
    <path style="fill:currentColor;fill-opacity:1;stroke:currentColor;stroke-width:1.5875;stroke-linecap:square;stroke-dasharray:none;stroke-opacity:1" d="m 15.35834,15.785872 9.53804,-0.04578" id="path22" sodipodi:nodetypes="cc"/>
    <path style="fill:none;fill-opacity:1;stroke:currentColor;stroke-width:1.5875;stroke-linecap:square;stroke-dasharray:none;stroke-opacity:1" d="m 15.459226,22.555894 c 0,0 3.592457,-0.03819 4.799354,-0.04284 1.206897,-0.0047 1.422323,-5.871642 1.422323,-5.871642" id="path23" sodipodi:nodetypes="czc"/>
    <circle style="fill:none;fill-opacity:1;stroke:currentColor;stroke-width:1.00359;stroke-linecap:square;stroke-opacity:1" id="circle26" cx="27.698811" cy="15.673279" r="1.9378407"/>
    <circle style="fill:none;fill-opacity:1;stroke:currentColor;stroke-width:1.00359;stroke-linecap:square;stroke-opacity:1" id="path1" cx="12.293555" cy="9.3068209" r="1.9378407"/>
    <circle style="fill:none;fill-opacity:1;stroke:currentColor;stroke-width:1.00359;stroke-linecap:square;stroke-opacity:1" id="circle24" cx="12.372154" cy="15.830476" r="1.9378407"/>
    <circle style="fill:none;fill-opacity:1;stroke:currentColor;stroke-width:1.00359;stroke-linecap:square;stroke-opacity:1" id="circle25" cx="12.372153" cy="22.511326" r="1.9378407"/>
  </g>
  <g inkscape:groupmode="layer" id="g22" inkscape:label="globe" transform="translate(-30.975453,-17.719192)" style="display:inline">
    <g id="g21" style="display:inline;fill:#c83737;stroke:#a02c89;stroke-width:2.2;stroke-dasharray:none;stroke-opacity:1">
      <g id="g20" style="display:inline;fill:#c83737;stroke:#a02c89;stroke-width:2.2;stroke-linecap:square;stroke-dasharray:none;stroke-opacity:1">
        <path id="path20" style="fill:currentColor;fill-opacity:0;stroke:currentColor;stroke-width:2.2;stroke-linecap:square;stroke-linejoin:round;stroke-dasharray:none;stroke-opacity:1" d="M 63.628452,33.979225 A 14.233227,14.233227 0 0 1 49.395226,48.212452 14.233227,14.233227 0 0 1 35.161999,33.979225 14.233227,14.233227 0 0 1 49.395226,19.745998 14.233227,14.233227 0 0 1 63.628452,33.979225 Z"/>
      </g>
    </g>
  </g>
</svg>
