<?xml version="1.0" encoding="UTF-8" standalone="no"?>
<!-- Created with Inkscape (http://www.inkscape.org/) -->

<svg
   width="104.77146mm"
   height="31.75mm"
   viewBox="0 0 104.77146 31.75"
   version="1.1"
   id="svg1"
   sodipodi:docname="earthkit-workflows-dark.svg"
   inkscape:version="1.3.2 (091e20e, 2023-11-25)"
   xmlns:inkscape="http://www.inkscape.org/namespaces/inkscape"
   xmlns:sodipodi="http://sodipodi.sourceforge.net/DTD/sodipodi-0.dtd"
   xmlns="http://www.w3.org/2000/svg"
   xmlns:svg="http://www.w3.org/2000/svg">
  <sodipodi:namedview
     id="namedview1"
     pagecolor="#ffffff"
     bordercolor="#000000"
     borderopacity="0.25"
     inkscape:showpageshadow="2"
     inkscape:pageopacity="0.0"
     inkscape:pagecheckerboard="0"
     inkscape:deskcolor="#d1d1d1"
     inkscape:document-units="mm"
     inkscape:zoom="3.3662753"
     inkscape:cx="142.14524"
     inkscape:cy="61.789361"
     inkscape:window-width="1512"
     inkscape:window-height="863"
     inkscape:window-x="242"
     inkscape:window-y="38"
     inkscape:window-maximized="0"
     inkscape:current-layer="layer1"
     showguides="false">
    <sodipodi:guide
       position="12.702752,37.214004"
       orientation="1,0"
       id="guide23"
       inkscape:locked="false" />
    <sodipodi:guide
       position="-13.005395,15.210232"
       orientation="0,-1"
       id="guide24"
       inkscape:locked="false" />
    <sodipodi:guide
       position="-3.4643869,13.383221"
       orientation="0,-1"
       id="guide25"
       inkscape:locked="false" />
    <sodipodi:guide
       position="0.68237925,6.9793543"
       orientation="0,-1"
       id="guide35"
       inkscape:locked="false" />
    <sodipodi:guide
       position="14.487436,35.114376"
       orientation="1,0"
       id="guide37"
       inkscape:locked="false" />
    <sodipodi:guide
       position="20.68134,-2.9413902"
       orientation="1,0"
       id="guide38"
       inkscape:locked="false" />
    <sodipodi:guide
       position="6.8148268,20.308346"
       orientation="0,-1"
       id="guide49"
       inkscape:locked="false" />
    <sodipodi:guide
       position="6.91887,21.634896"
       orientation="0,-1"
       id="guide50"
       inkscape:locked="false" />
    <sodipodi:guide
       position="23.148404,5.4571236"
       orientation="0,-1"
       id="guide164"
       inkscape:locked="false" />
    <sodipodi:guide
       position="22.203571,13.435712"
       orientation="1,0"
       id="guide165"
       inkscape:locked="false" />
  </sodipodi:namedview>
  <defs
     id="defs1" />
  <g
     inkscape:label="text"
     inkscape:groupmode="layer"
     id="layer1"
     transform="translate(-30.975453,-17.719192)"
     style="display:inline">
    <path
       style="font-size:50.9924px;font-family:'Varela Round';-inkscape-font-specification:'Varela Round';white-space:pre;shape-padding:4.75644;fill:#f9f9f9;stroke:#f9f9f9;stroke-width:2.06493;stroke-linecap:round;stroke-linejoin:round"
       d="m 317.68787,149.91332 q -6.22107,0 -9.73955,-3.51848 -3.46748,-3.56946 -3.46748,-9.99451 0,-3.46748 1.27481,-6.52702 1.27481,-3.11054 3.97741,-5.04825 2.70259,-1.93771 6.93496,-1.93771 3.92642,0 6.62901,1.83572 2.7026,1.78474 4.0794,4.6913 1.42778,2.90657 1.42778,6.32306 0,0.96886 -0.6629,1.63176 -0.61191,0.6629 -1.68275,0.6629 h -17.28642 q 0.40794,3.41649 2.60061,5.50718 2.19267,2.03969 6.32306,2.03969 2.29466,0 3.87542,-0.40793 1.58077,-0.45894 3.00855,-1.17283 0.40794,-0.20397 0.91787,-0.20397 0.81588,0 1.42778,0.56092 0.61191,0.56091 0.61191,1.42778 0,0.61191 -0.40794,1.12184 -0.35694,0.45893 -0.91786,0.76488 -1.68275,0.96886 -3.67145,1.63176 -1.93771,0.61191 -5.25222,0.61191 z m -8.51573,-15.65467 h 15.04276 q -0.15298,-2.6516 -1.3768,-4.28336 -1.17282,-1.63176 -2.85557,-2.39664 -1.68275,-0.76489 -3.31451,-0.76489 -1.63175,0 -3.3145,0.76489 -1.68275,0.76488 -2.85558,2.39664 -1.17282,1.63176 -1.3258,4.28336 z m 32.38017,15.65467 q -2.19267,0 -4.13038,-0.91786 -1.88672,-0.91787 -3.05955,-2.60062 -1.12183,-1.73374 -1.12183,-4.13038 0,-3.62046 2.85558,-5.91512 2.90656,-2.34565 8.87267,-2.34565 h 6.17008 v -0.40794 q 0,-3.41649 -1.68274,-4.84428 -1.68275,-1.47878 -5.15024,-1.47878 -2.14168,0 -3.77343,0.40794 -1.58077,0.35695 -3.00856,0.81588 -0.40794,0.10199 -0.6629,0.10199 -0.76488,0 -1.3258,-0.56092 -0.56092,-0.56092 -0.56092,-1.3768 0,-1.37679 1.32581,-1.93771 1.78473,-0.76488 3.92641,-1.27481 2.19267,-0.56091 4.89527,-0.56091 3.72245,0 6.0681,1.47878 2.34565,1.47878 3.46748,3.77343 1.12183,2.29466 1.12183,4.79329 v 14.43085 q 0,0.96885 -0.71389,1.63176 -0.6629,0.6629 -1.63176,0.6629 -0.96885,0 -1.63175,-0.6629 -0.66291,-0.66291 -0.66291,-1.63176 v -1.3258 q -1.37679,1.42778 -3.67145,2.6516 -2.29466,1.22382 -5.91512,1.22382 z m 1.73374,-4.07939 q 2.39665,0 4.48734,-1.17283 2.09068,-1.17282 3.36549,-2.6516 v -4.28336 h -5.55817 q -3.56947,0 -5.66015,0.91786 -2.0397,0.91786 -2.0397,3.11053 0,1.63176 1.12183,2.85558 1.17283,1.22382 4.28336,1.22382 z m 22.58956,3.82443 q -0.96886,0 -1.63176,-0.6629 -0.6629,-0.66291 -0.6629,-1.63176 v -21.87574 q 0,-0.96886 0.6629,-1.63176 0.6629,-0.71389 1.63176,-0.71389 0.96885,0 1.63175,0.71389 0.7139,0.6629 0.7139,1.63176 v 2.19267 q 1.37679,-1.83572 3.36549,-3.3145 1.98871,-1.47878 4.64031,-1.47878 h 0.25496 q 0.96886,0 1.58077,0.6629 0.6629,0.6629 0.6629,1.63175 0,0.96886 -0.6629,1.58077 -0.6629,0.61191 -1.68275,0.61191 h -0.25496 q -2.49863,0 -4.53833,1.27481 -2.03969,1.22382 -3.36549,3.21252 v 15.50169 q 0,0.96885 -0.7139,1.63176 -0.6629,0.6629 -1.63175,0.6629 z m 26.21006,0.25496 q -0.91786,0 -2.19267,-0.20397 -1.22382,-0.15298 -2.44764,-0.76489 -1.17282,-0.6629 -1.9887,-2.03969 -0.81588,-1.3768 -0.81588,-3.72245 v -15.80764 h -3.62046 q -0.96885,0 -0.96885,-0.96886 0,-0.50992 0.45893,-0.86687 l 6.93496,-6.78199 q 0.10199,-0.10198 0.30596,-0.25496 0.25496,-0.20397 0.56092,-0.20397 0.40793,0 0.6629,0.30595 0.30595,0.30596 0.30595,0.7139 v 4.07939 h 5.76214 q 0.86687,0 1.42779,0.56092 0.56092,0.56091 0.56092,1.42778 0,0.81588 -0.56092,1.42779 -0.56092,0.56092 -1.42779,0.56092 h -5.76214 v 15.3997 q 0,1.47878 0.56092,2.14168 0.56091,0.6629 1.3258,0.81588 0.81588,0.10199 1.42779,0.10199 1.22382,0 1.78473,-0.20397 0.61191,-0.25496 1.27481,-0.25496 0.7139,0 1.27481,0.50992 0.56092,0.50992 0.56092,1.3258 0,1.17283 -1.17283,1.78474 -0.91786,0.40793 -1.9887,0.6629 -1.01985,0.25496 -2.24367,0.25496 z m 12.79909,-0.25496 q -0.96885,0 -1.63175,-0.6629 -0.6629,-0.66291 -0.6629,-1.63176 v -33.09407 q 0,-1.01985 0.6629,-1.68275 0.6629,-0.6629 1.63175,-0.6629 0.96886,0 1.63176,0.6629 0.71389,0.6629 0.71389,1.68275 v 13.30902 q 1.63176,-1.78474 3.82443,-3.21252 2.24367,-1.47878 5.66016,-1.47878 2.90657,0 4.94626,1.37679 2.0397,1.3258 3.11054,3.62046 1.07084,2.24367 1.07084,4.99726 v 14.48184 q 0,0.96885 -0.71389,1.63176 -0.6629,0.6629 -1.63176,0.6629 -0.96885,0 -1.63176,-0.6629 -0.6629,-0.66291 -0.6629,-1.63176 v -13.97192 q 0,-2.90657 -1.3258,-4.53832 -1.27481,-1.68275 -4.28336,-1.68275 -2.75359,0 -4.79329,1.47878 -2.03969,1.47878 -3.56947,3.41649 v 15.29772 q 0,0.96885 -0.71389,1.63176 -0.6629,0.6629 -1.63176,0.6629 z m 31.05433,0 q -0.96885,0 -1.63175,-0.6629 -0.6629,-0.66291 -0.6629,-1.63176 v -33.09407 q 0,-0.96886 0.6629,-1.63176 0.6629,-0.71389 1.63175,-0.71389 0.96886,0 1.63176,0.71389 0.71389,0.6629 0.71389,1.63176 v 20.85589 l 12.1362,-11.21833 q 0.30595,-0.25496 0.6629,-0.45893 0.40794,-0.20397 0.86687,-0.20397 1.3258,0 1.78473,0.76489 0.45893,0.71389 0.45893,1.47878 0,0.30595 -0.15297,0.76488 -0.15298,0.40794 -0.7139,0.96886 l -7.3429,6.57802 9.22962,12.23818 q 0.50992,0.6629 0.50992,1.37679 0,1.01985 -0.6629,1.63176 -0.6629,0.61191 -1.68275,0.61191 -1.07084,0 -1.88671,-0.96886 l -8.7707,-11.93222 -4.43634,4.0284 v 6.57802 q 0,0.96885 -0.71389,1.63176 -0.6629,0.6629 -1.63176,0.6629 z m 27.68878,-31.5643 q -1.07084,0 -1.83572,-0.76489 -0.76489,-0.76488 -0.76489,-1.83572 v -0.20397 q 0,-1.07084 0.76489,-1.83573 0.76488,-0.76488 1.83572,-0.76488 h 0.30596 q 1.07084,0 1.83572,0.76488 0.76489,0.76489 0.76489,1.83573 v 0.20397 q 0,1.07084 -0.76489,1.83572 -0.76488,0.76489 -1.83572,0.76489 z m 0.10199,31.5643 q -0.96886,0 -1.63176,-0.6629 -0.6629,-0.66291 -0.6629,-1.63176 v -21.87574 q 0,-1.01985 0.6629,-1.68275 0.6629,-0.6629 1.63176,-0.6629 1.01985,0 1.68275,0.6629 0.6629,0.6629 0.6629,1.68275 v 21.87574 q 0,0.96885 -0.6629,1.63176 -0.6629,0.6629 -1.68275,0.6629 z m 19.37704,0.25496 q -0.91786,0 -2.19267,-0.20397 -1.22382,-0.15298 -2.44764,-0.76489 -1.17283,-0.6629 -1.9887,-2.03969 -0.81588,-1.3768 -0.81588,-3.72245 v -15.80764 h -3.62046 q -0.96886,0 -0.96886,-0.96886 0,-0.50992 0.45893,-0.86687 l 6.93497,-6.78199 q 0.10198,-0.10198 0.30595,-0.25496 0.25497,-0.20397 0.56092,-0.20397 0.40794,0 0.6629,0.30595 0.30596,0.30596 0.30596,0.7139 v 4.07939 h 5.76214 q 0.86687,0 1.42778,0.56092 0.56092,0.56091 0.56092,1.42778 0,0.81588 -0.56092,1.42779 -0.56091,0.56092 -1.42778,0.56092 h -5.76214 v 15.3997 q 0,1.47878 0.56091,2.14168 0.56092,0.6629 1.32581,0.81588 0.81587,0.10199 1.42778,0.10199 1.22382,0 1.78474,-0.20397 0.61191,-0.25496 1.27481,-0.25496 0.71389,0 1.27481,0.50992 0.56091,0.50992 0.56091,1.3258 0,1.17283 -1.17282,1.78474 -0.91787,0.40793 -1.98871,0.6629 -1.01984,0.25496 -2.24366,0.25496 z"
       id="text12"
       transform="matrix(0.29056645,0,0,0.29056645,-11.196464,-11.002162)"
       aria-label="earthkit" />
    <path
       style="fill:#f9f9f9;stroke:none;stroke-width:0;stroke-linecap:square;stroke-dasharray:none"
       d="M 42.260316,67.25665 V 77.452879"
       id="path59" />
    <text
       xml:space="preserve"
       style="font-style:normal;font-variant:normal;font-weight:normal;font-stretch:normal;font-size:11.2889px;font-family:'Varela Round';-inkscape-font-specification:'Varela Round';display:inline;fill:#a024a5;stroke:#a02c89;stroke-width:1.05833;stroke-linecap:square;stroke-opacity:1;fill-opacity:1"
       x="76.619011"
       y="42.032269"
       id="text1"><tspan
         sodipodi:role="line"
         id="tspan1"
         style="font-style:normal;font-variant:normal;font-weight:normal;font-stretch:normal;font-size:11.2889px;font-family:'Varela Round';-inkscape-font-specification:'Varela Round';fill:#a024a5;stroke:#a02c89;stroke-width:1.05833;stroke-opacity:1;fill-opacity:1"
         x="76.619011"
         y="42.032269">workflows</tspan></text>
  </g>
  <g
     inkscape:groupmode="layer"
     id="layer2"
     inkscape:label="frame"
     transform="translate(-30.975453,-17.719192)"
     style="display:inline">
    <g
       id="g12"
       style="stroke:#d35fbc;stroke-width:2;stroke-dasharray:none;stroke-opacity:1;fill:none">
      <g
         id="g11"
         style="stroke:#d35fbc;stroke-width:2;stroke-dasharray:none;stroke-opacity:1;fill:none">
        <path
           d="m 58.642415,23.159827 a 14.233227,14.233227 0 0 1 0.02377,0.01964 14.233227,14.233227 0 0 1 0.535367,0.483174 14.233227,14.233227 0 0 1 0.50953,0.510047 14.233227,14.233227 0 0 1 0.483691,0.534851 14.233227,14.233227 0 0 1 0.455787,0.559139 14.233227,14.233227 0 0 1 0.426847,0.58136 14.233227,14.233227 0 0 1 0.396875,0.60203 14.233227,14.233227 0 0 1 0.365869,0.621151 14.233227,14.233227 0 0 1 0.33383,0.639237 14.233227,14.233227 0 0 1 0.300757,0.655257 14.233227,14.233227 0 0 1 0.267684,0.669727 14.233227,14.233227 0 0 1 0.23306,0.682646 14.233227,14.233227 0 0 1 0.198438,0.692981 14.233227,14.233227 0 0 1 0.163297,0.702799 14.233227,14.233227 0 0 1 0.127124,0.709518 14.233227,14.233227 0 0 1 0.09095,0.715718 14.233227,14.233227 0 0 1 0.05478,0.718819 14.233227,14.233227 0 0 1 0.01809,0.720887 14.233227,14.233227 0 0 1 -0.144694,2.025716 14.233227,14.233227 0 0 1 -0.431499,1.984375 14.233227,14.233227 0 0 1 -0.710034,1.902726 14.233227,14.233227 0 0 1 -0.973067,1.78232 14.233227,14.233227 0 0 1 -1.21698,1.625741 14.233227,14.233227 0 0 1 -1.436088,1.436088 14.233227,14.233227 0 0 1 -0.187069,0.140043 l 2.83962,3.388423 a 18.639271,18.639271 0 0 0 1.67535,-1.591634 18.639271,18.639271 0 0 0 1.46606,-1.785937 18.639271,18.639271 0 0 0 1.233517,-1.954403 18.639271,18.639271 0 0 0 0.981852,-2.091345 18.639271,18.639271 0 0 0 0.716235,-2.197282 18.639271,18.639271 0 0 0 0.438217,-2.269112 18.639271,18.639271 0 0 0 0.154512,-2.305286 18.639271,18.639271 0 0 0 -0.0026,-0.404626 18.639271,18.639271 0 0 0 -0.01085,-0.404627 18.639271,18.639271 0 0 0 -0.02015,-0.404109 18.639271,18.639271 0 0 0 -0.02894,-0.403593 18.639271,18.639271 0 0 0 -0.03721,-0.403076 18.639271,18.639271 0 0 0 -0.04651,-0.402043 18.639271,18.639271 0 0 0 -0.05478,-0.400492 18.639271,18.639271 0 0 0 -0.06356,-0.399976 18.639271,18.639271 0 0 0 -0.07235,-0.397909 18.639271,18.639271 0 0 0 -0.08113,-0.396358 18.639271,18.639271 0 0 0 -0.0894,-0.394808 18.639271,18.639271 0 0 0 -0.09819,-0.392741 18.639271,18.639271 0 0 0 -0.106453,-0.390157 18.639271,18.639271 0 0 0 -0.115239,-0.38809 18.639271,18.639271 0 0 0 -0.123506,-0.385506 18.639271,18.639271 0 0 0 -0.131258,-0.382405 18.639271,18.639271 0 0 0 -0.140043,-0.379822 18.639271,18.639271 0 0 0 -0.148312,-0.376205 18.639271,18.639271 0 0 0 -0.156579,-0.373104 18.639271,18.639271 0 0 0 -0.164331,-0.370003 18.639271,18.639271 0 0 0 -0.1726,-0.365869 A 18.639271,18.639271 0 0 0 65.989752,25.49147 18.639271,18.639271 0 0 0 65.801668,25.13335 18.639271,18.639271 0 0 0 65.605815,24.778849 18.639271,18.639271 0 0 0 65.402209,24.429517 18.639271,18.639271 0 0 0 65.19137,24.084318 18.639271,18.639271 0 0 0 64.972778,23.74377 18.639271,18.639271 0 0 0 64.746952,23.407874 18.639271,18.639271 0 0 0 64.513892,23.077144 18.639271,18.639271 0 0 0 64.273596,22.751583 18.639271,18.639271 0 0 0 64.026583,22.431189 18.639271,18.639271 0 0 0 63.772335,22.115963 18.639271,18.639271 0 0 0 63.511369,21.806938 18.639271,18.639271 0 0 0 63.243685,21.50308 18.639271,18.639271 0 0 0 62.9698,21.205424 18.639271,18.639271 0 0 0 62.689197,20.913969 18.639271,18.639271 0 0 0 62.402393,20.628198 18.639271,18.639271 0 0 0 62.109387,20.349146 18.639271,18.639271 0 0 0 61.810697,20.076294 18.639271,18.639271 0 0 0 61.505806,19.81016 Z"
           style="fill:none;stroke:#d35fbc;stroke-width:2;stroke-linecap:square;stroke-linejoin:round;stroke-dasharray:none;stroke-opacity:1"
           id="path8" />
        <path
           d="m 61.600374,26.902234 a 14.107161,14.107161 0 0 1 0.273369,0.483691 14.107161,14.107161 0 0 1 0.339514,0.684713 14.107161,14.107161 0 0 1 0.30179,0.701766 14.107161,14.107161 0 0 1 0.26355,0.717269 14.107161,14.107161 0 0 1 0.224276,0.730188 14.107161,14.107161 0 0 1 0.184485,0.741557 14.107161,14.107161 0 0 1 0.144177,0.750341 14.107161,14.107161 0 0 1 0.102836,0.75706 14.107161,14.107161 0 0 1 0.06201,0.761194 14.107161,14.107161 0 0 1 0.02067,0.763778 14.107161,14.107161 0 0 1 -0.173633,2.2071 14.107161,14.107161 0 0 1 -0.516764,2.152324 14.107161,14.107161 0 0 1 -0.846977,2.045353 14.107161,14.107161 0 0 1 -0.199987,0.326595 l 8.019665,4.188891 a 23.109167,23.109167 0 0 0 0.253731,-0.499711 23.109167,23.109167 0 0 0 0.240813,-0.505395 23.109167,23.109167 0 0 0 0.228926,-0.511597 23.109167,23.109167 0 0 0 0.216524,-0.516764 23.109167,23.109167 0 0 0 0.203606,-0.521932 23.109167,23.109167 0 0 0 0.191202,-0.526583 23.109167,23.109167 0 0 0 0.178284,-0.531234 23.109167,23.109167 0 0 0 0.165365,-0.535368 23.109167,23.109167 0 0 0 0.152445,-0.538985 23.109167,23.109167 0 0 0 0.13901,-0.543119 23.109167,23.109167 0 0 0 0.12609,-0.545703 23.109167,23.109167 0 0 0 0.112655,-0.548804 23.109167,23.109167 0 0 0 0.09922,-0.551387 23.109167,23.109167 0 0 0 0.08578,-0.553972 23.109167,23.109167 0 0 0 0.07286,-0.555521 23.109167,23.109167 0 0 0 0.05891,-0.557072 23.109167,23.109167 0 0 0 0.04548,-0.558106 23.109167,23.109167 0 0 0 0.03204,-0.559656 23.109167,23.109167 0 0 0 0.0186,-0.560172 23.109167,23.109167 0 0 0 0.0046,-0.560173 23.109167,23.109167 0 0 0 -0.0088,-0.560172 23.109167,23.109167 0 0 0 -0.02222,-0.559656 23.109167,23.109167 0 0 0 -0.03617,-0.559139 23.109167,23.109167 0 0 0 -0.04961,-0.558105 23.109167,23.109167 0 0 0 -0.06253,-0.556556 23.109167,23.109167 0 0 0 -0.07648,-0.555521 23.109167,23.109167 0 0 0 -0.08992,-0.552938 23.109167,23.109167 0 0 0 -0.103353,-0.550354 23.109167,23.109167 0 0 0 -0.116789,-0.548287 23.109167,23.109167 0 0 0 -0.129707,-0.545186 23.109167,23.109167 0 0 0 -0.143144,-0.541569 23.109167,23.109167 0 0 0 -0.156063,-0.537952 23.109167,23.109167 0 0 0 -0.168982,-0.534334 23.109167,23.109167 0 0 0 -0.181901,-0.529684 23.109167,23.109167 0 0 0 -0.19482,-0.525549 23.109167,23.109167 0 0 0 -0.207739,-0.520382 23.109167,23.109167 0 0 0 -0.220142,-0.515214 23.109167,23.109167 0 0 0 -0.232544,-0.510046 23.109167,23.109167 0 0 0 -0.244429,-0.503845 23.109167,23.109167 0 0 0 -0.256832,-0.497644 23.109167,23.109167 0 0 0 -0.269234,-0.49196 23.109167,23.109167 0 0 0 -0.280603,-0.484725 z"
           style="fill:none;fill-opacity:0;stroke:#d35fbc;stroke-width:2;stroke-linecap:square;stroke-linejoin:round;stroke-dasharray:none;stroke-opacity:1"
           id="path13" />
        <path
           style="fill:none;stroke:#d35fbc;stroke-width:2;stroke-linecap:square;stroke-linejoin:round;stroke-dasharray:none;stroke-opacity:1"
           d="m 63.395655,35.866525 8.494705,1.730404"
           id="path10" />
        <path
           style="fill:none;stroke:#d35fbc;stroke-width:2;stroke-linecap:square;stroke-linejoin:round;stroke-dasharray:none;stroke-opacity:1"
           d="m 63.395655,31.304555 8.337397,-1.573093"
           id="path11" />
      </g>
      <path
         style="fill:none;stroke:#d35fbc;stroke-width:2;stroke-linecap:round;stroke-linejoin:round;stroke-dasharray:none;stroke-opacity:1"
         id="path12"
         sodipodi:type="arc"
         sodipodi:cx="49.237816"
         sodipodi:cy="33.978817"
         sodipodi:rx="17.230442"
         sodipodi:ry="17.230442"
         sodipodi:start="4.0660296"
         sodipodi:end="4.2294201"
         sodipodi:arc-type="arc"
         d="m 38.860193,20.224069 a 17.230442,17.230442 0 0 1 2.375624,-1.504877"
         sodipodi:open="true" />
      <path
         style="fill:none;stroke:#d35fbc;stroke-width:2;stroke-linecap:round;stroke-linejoin:round;stroke-dasharray:none;stroke-opacity:1"
         id="path12-1"
         sodipodi:type="arc"
         sodipodi:cx="49.205894"
         sodipodi:cy="34.057484"
         sodipodi:rx="17.230442"
         sodipodi:ry="17.230442"
         sodipodi:start="3.0382093"
         sodipodi:end="3.3111615"
         sodipodi:arc-type="arc"
         d="m 32.067451,35.835653 a 17.230442,17.230442 0 0 1 0.155127,-4.685934"
         sodipodi:open="true" />
      <path
         style="fill:none;stroke:#d35fbc;stroke-width:2;stroke-linecap:round;stroke-linejoin:round;stroke-dasharray:none;stroke-opacity:1"
         id="path12-18"
         sodipodi:type="arc"
         sodipodi:cx="49.193039"
         sodipodi:cy="33.944946"
         sodipodi:rx="17.230442"
         sodipodi:ry="17.230442"
         sodipodi:start="2.6616567"
         sodipodi:end="2.7961599"
         sodipodi:arc-type="arc"
         d="M 33.909215,41.900627 A 17.230442,17.230442 0 0 1 32.980416,39.779241"
         sodipodi:open="true" />
      <g
         id="g1"
         style="stroke:#d35fbc;stroke-width:2;stroke-dasharray:none;stroke-opacity:1;fill:none" />
    </g>
  </g>
  <g
     inkscape:groupmode="layer"
     id="layer6"
     inkscape:label="flow">
    <path
       sodipodi:nodetypes="ccaaccaacaaccc"
       id="path3731-1"
       d="m 17.788654,17.499498 2.103163,-2.349933 c 0,0 3.353434,0.151162 4.507963,-0.898095 0.814153,-0.739912 1.100994,-2.077019 1.042593,-3.203256 -0.02071,-0.399438 -0.114477,-0.999312 -0.485084,-1.0876289 -0.707331,0.6541049 -1.359391,1.4991659 -2.172416,2.1278069 -0.632652,0.165198 -1.29303,-0.05632 -1.742123,-0.472206 -0.43698,-0.404662 -0.728552,-1.100487 -0.641036,-1.7039259 0.157974,-1.089274 2.410875,-1.603649 1.977228,-2.5788 -0.193527,-0.43522 -1.08878,-0.362645 -1.629697,-0.261073 -0.939961,0.176502 -1.977488,0.622568 -2.504012,1.455638 -0.746536,1.181141 -0.423967,4.2241119 -0.423967,4.2241119 l -2.315478,2.442399 z"
       style="display:inline;fill:none;stroke:none;stroke-width:0.499811;stroke-linecap:butt;stroke-linejoin:miter;stroke-miterlimit:4;stroke-dasharray:none;stroke-opacity:1" />
    <path
       sodipodi:nodetypes="ccaaccaacaaccc"
       id="path15"
       d="m 17.474261,14.383287 2.103163,2.349933 c 0,0 3.353434,-0.151162 4.507963,0.898095 0.814153,0.739912 1.100994,2.077019 1.042593,3.203256 -0.02071,0.399438 -0.114477,0.999312 -0.485084,1.087629 -0.707331,-0.654105 -1.359391,-1.499166 -2.172416,-2.127807 -0.632652,-0.165198 -1.29303,0.05632 -1.742123,0.472206 -0.43698,0.404662 -0.728552,1.100487 -0.641036,1.703926 0.157974,1.089274 2.410875,1.603649 1.977228,2.5788 -0.193527,0.43522 -1.08878,0.362645 -1.629697,0.261073 C 19.494891,24.633896 18.457364,24.18783 17.93084,23.35476 17.184304,22.173619 17.506873,19.130648 17.506873,19.130648 l -2.315478,-2.442399 z"
       style="display:inline;fill:none;stroke:none;stroke-width:0.499811;stroke-linecap:butt;stroke-linejoin:miter;stroke-miterlimit:4;stroke-dasharray:none;stroke-opacity:1" />
    <path
       style="fill:none;fill-opacity:1;stroke:#c837ab;stroke-width:1.5875;stroke-linecap:square;stroke-dasharray:none;stroke-opacity:1"
       d="m 14.751843,9.6079521 c 0,0 4.29984,-0.040408 5.506737,-0.035763 1.206897,0.00465 1.422323,6.0288391 1.422323,6.0288391"
       id="path19"
       sodipodi:nodetypes="czc" />
    <path
       style="fill:#ff00ff;fill-opacity:1;stroke:#c837ab;stroke-width:1.5875;stroke-linecap:square;stroke-dasharray:none;stroke-opacity:1"
       d="m 15.35834,15.785872 9.53804,-0.04578"
       id="path22"
       sodipodi:nodetypes="cc" />
    <path
       style="fill:none;fill-opacity:1;stroke:#c837ab;stroke-width:1.5875;stroke-linecap:square;stroke-dasharray:none;stroke-opacity:1"
       d="m 15.459226,22.555894 c 0,0 3.592457,-0.03819 4.799354,-0.04284 1.206897,-0.0047 1.422323,-5.871642 1.422323,-5.871642"
       id="path23"
       sodipodi:nodetypes="czc" />
    <circle
       style="fill:none;fill-opacity:1;stroke:#c837ab;stroke-width:1.00359;stroke-linecap:square;stroke-opacity:1"
       id="circle26"
       cx="27.698811"
       cy="15.673279"
       r="1.9378407" />
    <circle
       style="fill:none;fill-opacity:1;stroke:#d35fbc;stroke-width:1.00359;stroke-linecap:square;stroke-opacity:1"
       id="path1"
       cx="12.293555"
       cy="9.3068209"
       r="1.9378407" />
    <circle
       style="fill:none;fill-opacity:1;stroke:#d35fbc;stroke-width:1.00359;stroke-linecap:square;stroke-opacity:1"
       id="circle24"
       cx="12.372154"
       cy="15.830476"
       r="1.9378407" />
    <circle
       style="fill:none;fill-opacity:1;stroke:#d35fbc;stroke-width:1.00359;stroke-linecap:square;stroke-opacity:1"
       id="circle25"
       cx="12.372153"
       cy="22.511326"
       r="1.9378407" />
  </g>
  <g
     inkscape:groupmode="layer"
     id="g22"
     inkscape:label="globe"
     transform="translate(-30.975453,-17.719192)"
     style="display:inline">
    <g
       id="g21"
       style="display:inline;fill:#c83737;stroke:#a02c89;stroke-width:2.2;stroke-dasharray:none;stroke-opacity:1">
      <g
         id="g20"
         style="display:inline;fill:#c83737;stroke:#a02c89;stroke-width:2.2;stroke-linecap:square;stroke-dasharray:none;stroke-opacity:1">
        <path
           id="path20"
           style="fill:#c83737;fill-opacity:0;stroke:#a02c89;stroke-width:2.2;stroke-linecap:square;stroke-linejoin:round;stroke-dasharray:none;stroke-opacity:1"
           d="M 63.628452,33.979225 A 14.233227,14.233227 0 0 1 49.395226,48.212452 14.233227,14.233227 0 0 1 35.161999,33.979225 14.233227,14.233227 0 0 1 49.395226,19.745998 14.233227,14.233227 0 0 1 63.628452,33.979225 Z" />
      </g>
    </g>
  </g>
</svg>
