<?xml version="1.0" encoding="UTF-8" standalone="no"?>
<!-- Created with Inkscape (http://www.inkscape.org/) -->

<svg
   width="104.77146mm"
   height="31.75mm"
   viewBox="0 0 104.77146 31.75"
   version="1.1"
   id="svg1"
   sodipodi:docname="earthkit-regrid-light.svg"
   inkscape:version="1.3 (0e150ed, 2023-07-21)"
   xmlns:inkscape="http://www.inkscape.org/namespaces/inkscape"
   xmlns:sodipodi="http://sodipodi.sourceforge.net/DTD/sodipodi-0.dtd"
   xmlns="http://www.w3.org/2000/svg"
   xmlns:svg="http://www.w3.org/2000/svg">
  <sodipodi:namedview
     id="namedview1"
     pagecolor="#ffffff"
     bordercolor="#000000"
     borderopacity="0.25"
     inkscape:showpageshadow="2"
     inkscape:pageopacity="0.0"
     inkscape:pagecheckerboard="0"
     inkscape:deskcolor="#d1d1d1"
     inkscape:document-units="mm"
     inkscape:zoom="2.0429983"
     inkscape:cx="179.63794"
     inkscape:cy="-5.6289817"
     inkscape:window-width="1616"
     inkscape:window-height="910"
     inkscape:window-x="262"
     inkscape:window-y="251"
     inkscape:window-maximized="0"
     inkscape:current-layer="layer1"
     showguides="false">
    <sodipodi:guide
       position="12.702752,37.214004"
       orientation="1,0"
       id="guide23"
       inkscape:locked="false" />
    <sodipodi:guide
       position="-13.005395,15.210232"
       orientation="0,-1"
       id="guide24"
       inkscape:locked="false" />
    <sodipodi:guide
       position="-3.4643869,13.383221"
       orientation="0,-1"
       id="guide25"
       inkscape:locked="false" />
    <sodipodi:guide
       position="0.68237925,6.9793543"
       orientation="0,-1"
       id="guide35"
       inkscape:locked="false" />
    <sodipodi:guide
       position="14.487436,35.114376"
       orientation="1,0"
       id="guide37"
       inkscape:locked="false" />
    <sodipodi:guide
       position="20.68134,-2.9413902"
       orientation="1,0"
       id="guide38"
       inkscape:locked="false" />
    <sodipodi:guide
       position="6.8148268,20.308346"
       orientation="0,-1"
       id="guide49"
       inkscape:locked="false" />
    <sodipodi:guide
       position="6.91887,21.634896"
       orientation="0,-1"
       id="guide50"
       inkscape:locked="false" />
    <sodipodi:guide
       position="23.148404,5.4571236"
       orientation="0,-1"
       id="guide164"
       inkscape:locked="false" />
    <sodipodi:guide
       position="22.203571,13.435712"
       orientation="1,0"
       id="guide165"
       inkscape:locked="false" />
  </sodipodi:namedview>
  <defs
     id="defs1">
    <inkscape:path-effect
       effect="lattice2"
       gridpoint0="31.739223,-31.810113"
       gridpoint1="53.951808,-31.810113"
       gridpoint2="31.739223,-9.5975292"
       gridpoint3="53.951808,-9.5975292"
       gridpoint4="37.292369,-31.810113"
       gridpoint5="48.398662,-31.810113"
       gridpoint6="37.292369,-9.5975292"
       gridpoint7="48.398662,-9.5975292"
       gridpoint8x9="42.845516,-31.810113"
       gridpoint10x11="42.845516,-9.5975292"
       gridpoint12="31.739223,-26.256967"
       gridpoint13="53.951808,-26.256967"
       gridpoint14="31.739223,-15.150675"
       gridpoint15="53.951808,-15.150675"
       gridpoint16="37.292369,-26.256967"
       gridpoint17="48.398662,-26.256967"
       gridpoint18="37.292369,-15.150675"
       gridpoint19="48.398662,-15.150675"
       gridpoint20x21="42.845516,-26.256967"
       gridpoint22x23="42.845516,-15.150675"
       gridpoint24x26="31.739223,-20.703821"
       gridpoint25x27="53.951808,-20.703821"
       gridpoint28x30="37.292369,-20.703821"
       gridpoint29x31="48.398662,-20.703821"
       gridpoint32x33x34x35="42.845516,-20.703821"
       id="path-effect3"
       is_visible="true"
       lpeversion="1"
       horizontal_mirror="false"
       vertical_mirror="false"
       perimetral="false"
       live_update="true" />
    <inkscape:path-effect
       effect="envelope"
       id="path-effect2"
       is_visible="true"
       lpeversion="1"
       yy="true"
       xx="true"
       bendpath1="M 31.770994,-31.841955 H 53.983579"
       bendpath2="M 53.983579,-31.841955 V -9.6293712"
       bendpath3="M 31.770994,-9.6293712 H 53.983579"
       bendpath4="M 31.770994,-31.841955 V -9.6293712" />
    <inkscape:perspective
       sodipodi:type="inkscape:persp3d"
       inkscape:vp_x="0 : 15.977496 : 1"
       inkscape:vp_y="0 : 1000 : 0"
       inkscape:vp_z="104.77146 : 15.977496 : 1"
       inkscape:persp3d-origin="52.38573 : 10.719995 : 1"
       id="perspective6" />
    <rect
       x="297.27747"
       y="98.696114"
       width="252.09129"
       height="79.670357"
       id="rect12" />
    <rect
       x="297.27747"
       y="98.696114"
       width="252.09129"
       height="79.670357"
       id="rect22" />
  </defs>
  <g
     inkscape:label="text"
     inkscape:groupmode="layer"
     id="layer1"
     transform="translate(-30.975453,-17.719192)"
     style="display:inline">
    <path
       style="font-size:50.9924px;font-family:'Varela Round';-inkscape-font-specification:'Varela Round';white-space:pre;shape-padding:4.75644;fill:#2a2a2a;stroke:#2a2a2a;stroke-width:2.06493;stroke-linecap:round;stroke-linejoin:round"
       d="m 317.68787,149.91332 q -6.22107,0 -9.73955,-3.51848 -3.46748,-3.56946 -3.46748,-9.99451 0,-3.46748 1.27481,-6.52702 1.27481,-3.11054 3.97741,-5.04825 2.70259,-1.93771 6.93496,-1.93771 3.92642,0 6.62901,1.83572 2.7026,1.78474 4.0794,4.6913 1.42778,2.90657 1.42778,6.32306 0,0.96886 -0.6629,1.63176 -0.61191,0.6629 -1.68275,0.6629 h -17.28642 q 0.40794,3.41649 2.60061,5.50718 2.19267,2.03969 6.32306,2.03969 2.29466,0 3.87542,-0.40793 1.58077,-0.45894 3.00855,-1.17283 0.40794,-0.20397 0.91787,-0.20397 0.81588,0 1.42778,0.56092 0.61191,0.56091 0.61191,1.42778 0,0.61191 -0.40794,1.12184 -0.35694,0.45893 -0.91786,0.76488 -1.68275,0.96886 -3.67145,1.63176 -1.93771,0.61191 -5.25222,0.61191 z m -8.51573,-15.65467 h 15.04276 q -0.15298,-2.6516 -1.3768,-4.28336 -1.17282,-1.63176 -2.85557,-2.39664 -1.68275,-0.76489 -3.31451,-0.76489 -1.63175,0 -3.3145,0.76489 -1.68275,0.76488 -2.85558,2.39664 -1.17282,1.63176 -1.3258,4.28336 z m 32.38017,15.65467 q -2.19267,0 -4.13038,-0.91786 -1.88672,-0.91787 -3.05955,-2.60062 -1.12183,-1.73374 -1.12183,-4.13038 0,-3.62046 2.85558,-5.91512 2.90656,-2.34565 8.87267,-2.34565 h 6.17008 v -0.40794 q 0,-3.41649 -1.68274,-4.84428 -1.68275,-1.47878 -5.15024,-1.47878 -2.14168,0 -3.77343,0.40794 -1.58077,0.35695 -3.00856,0.81588 -0.40794,0.10199 -0.6629,0.10199 -0.76488,0 -1.3258,-0.56092 -0.56092,-0.56092 -0.56092,-1.3768 0,-1.37679 1.32581,-1.93771 1.78473,-0.76488 3.92641,-1.27481 2.19267,-0.56091 4.89527,-0.56091 3.72245,0 6.0681,1.47878 2.34565,1.47878 3.46748,3.77343 1.12183,2.29466 1.12183,4.79329 v 14.43085 q 0,0.96885 -0.71389,1.63176 -0.6629,0.6629 -1.63176,0.6629 -0.96885,0 -1.63175,-0.6629 -0.66291,-0.66291 -0.66291,-1.63176 v -1.3258 q -1.37679,1.42778 -3.67145,2.6516 -2.29466,1.22382 -5.91512,1.22382 z m 1.73374,-4.07939 q 2.39665,0 4.48734,-1.17283 2.09068,-1.17282 3.36549,-2.6516 v -4.28336 h -5.55817 q -3.56947,0 -5.66015,0.91786 -2.0397,0.91786 -2.0397,3.11053 0,1.63176 1.12183,2.85558 1.17283,1.22382 4.28336,1.22382 z m 22.58956,3.82443 q -0.96886,0 -1.63176,-0.6629 -0.6629,-0.66291 -0.6629,-1.63176 v -21.87574 q 0,-0.96886 0.6629,-1.63176 0.6629,-0.71389 1.63176,-0.71389 0.96885,0 1.63175,0.71389 0.7139,0.6629 0.7139,1.63176 v 2.19267 q 1.37679,-1.83572 3.36549,-3.3145 1.98871,-1.47878 4.64031,-1.47878 h 0.25496 q 0.96886,0 1.58077,0.6629 0.6629,0.6629 0.6629,1.63175 0,0.96886 -0.6629,1.58077 -0.6629,0.61191 -1.68275,0.61191 h -0.25496 q -2.49863,0 -4.53833,1.27481 -2.03969,1.22382 -3.36549,3.21252 v 15.50169 q 0,0.96885 -0.7139,1.63176 -0.6629,0.6629 -1.63175,0.6629 z m 26.21006,0.25496 q -0.91786,0 -2.19267,-0.20397 -1.22382,-0.15298 -2.44764,-0.76489 -1.17282,-0.6629 -1.9887,-2.03969 -0.81588,-1.3768 -0.81588,-3.72245 v -15.80764 h -3.62046 q -0.96885,0 -0.96885,-0.96886 0,-0.50992 0.45893,-0.86687 l 6.93496,-6.78199 q 0.10199,-0.10198 0.30596,-0.25496 0.25496,-0.20397 0.56092,-0.20397 0.40793,0 0.6629,0.30595 0.30595,0.30596 0.30595,0.7139 v 4.07939 h 5.76214 q 0.86687,0 1.42779,0.56092 0.56092,0.56091 0.56092,1.42778 0,0.81588 -0.56092,1.42779 -0.56092,0.56092 -1.42779,0.56092 h -5.76214 v 15.3997 q 0,1.47878 0.56092,2.14168 0.56091,0.6629 1.3258,0.81588 0.81588,0.10199 1.42779,0.10199 1.22382,0 1.78473,-0.20397 0.61191,-0.25496 1.27481,-0.25496 0.7139,0 1.27481,0.50992 0.56092,0.50992 0.56092,1.3258 0,1.17283 -1.17283,1.78474 -0.91786,0.40793 -1.9887,0.6629 -1.01985,0.25496 -2.24367,0.25496 z m 12.79909,-0.25496 q -0.96885,0 -1.63175,-0.6629 -0.6629,-0.66291 -0.6629,-1.63176 v -33.09407 q 0,-1.01985 0.6629,-1.68275 0.6629,-0.6629 1.63175,-0.6629 0.96886,0 1.63176,0.6629 0.71389,0.6629 0.71389,1.68275 v 13.30902 q 1.63176,-1.78474 3.82443,-3.21252 2.24367,-1.47878 5.66016,-1.47878 2.90657,0 4.94626,1.37679 2.0397,1.3258 3.11054,3.62046 1.07084,2.24367 1.07084,4.99726 v 14.48184 q 0,0.96885 -0.71389,1.63176 -0.6629,0.6629 -1.63176,0.6629 -0.96885,0 -1.63176,-0.6629 -0.6629,-0.66291 -0.6629,-1.63176 v -13.97192 q 0,-2.90657 -1.3258,-4.53832 -1.27481,-1.68275 -4.28336,-1.68275 -2.75359,0 -4.79329,1.47878 -2.03969,1.47878 -3.56947,3.41649 v 15.29772 q 0,0.96885 -0.71389,1.63176 -0.6629,0.6629 -1.63176,0.6629 z m 31.05433,0 q -0.96885,0 -1.63175,-0.6629 -0.6629,-0.66291 -0.6629,-1.63176 v -33.09407 q 0,-0.96886 0.6629,-1.63176 0.6629,-0.71389 1.63175,-0.71389 0.96886,0 1.63176,0.71389 0.71389,0.6629 0.71389,1.63176 v 20.85589 l 12.1362,-11.21833 q 0.30595,-0.25496 0.6629,-0.45893 0.40794,-0.20397 0.86687,-0.20397 1.3258,0 1.78473,0.76489 0.45893,0.71389 0.45893,1.47878 0,0.30595 -0.15297,0.76488 -0.15298,0.40794 -0.7139,0.96886 l -7.3429,6.57802 9.22962,12.23818 q 0.50992,0.6629 0.50992,1.37679 0,1.01985 -0.6629,1.63176 -0.6629,0.61191 -1.68275,0.61191 -1.07084,0 -1.88671,-0.96886 l -8.7707,-11.93222 -4.43634,4.0284 v 6.57802 q 0,0.96885 -0.71389,1.63176 -0.6629,0.6629 -1.63176,0.6629 z m 27.68878,-31.5643 q -1.07084,0 -1.83572,-0.76489 -0.76489,-0.76488 -0.76489,-1.83572 v -0.20397 q 0,-1.07084 0.76489,-1.83573 0.76488,-0.76488 1.83572,-0.76488 h 0.30596 q 1.07084,0 1.83572,0.76488 0.76489,0.76489 0.76489,1.83573 v 0.20397 q 0,1.07084 -0.76489,1.83572 -0.76488,0.76489 -1.83572,0.76489 z m 0.10199,31.5643 q -0.96886,0 -1.63176,-0.6629 -0.6629,-0.66291 -0.6629,-1.63176 v -21.87574 q 0,-1.01985 0.6629,-1.68275 0.6629,-0.6629 1.63176,-0.6629 1.01985,0 1.68275,0.6629 0.6629,0.6629 0.6629,1.68275 v 21.87574 q 0,0.96885 -0.6629,1.63176 -0.6629,0.6629 -1.68275,0.6629 z m 19.37704,0.25496 q -0.91786,0 -2.19267,-0.20397 -1.22382,-0.15298 -2.44764,-0.76489 -1.17283,-0.6629 -1.9887,-2.03969 -0.81588,-1.3768 -0.81588,-3.72245 v -15.80764 h -3.62046 q -0.96886,0 -0.96886,-0.96886 0,-0.50992 0.45893,-0.86687 l 6.93497,-6.78199 q 0.10198,-0.10198 0.30595,-0.25496 0.25497,-0.20397 0.56092,-0.20397 0.40794,0 0.6629,0.30595 0.30596,0.30596 0.30596,0.7139 v 4.07939 h 5.76214 q 0.86687,0 1.42778,0.56092 0.56092,0.56091 0.56092,1.42778 0,0.81588 -0.56092,1.42779 -0.56091,0.56092 -1.42778,0.56092 h -5.76214 v 15.3997 q 0,1.47878 0.56091,2.14168 0.56092,0.6629 1.32581,0.81588 0.81587,0.10199 1.42778,0.10199 1.22382,0 1.78474,-0.20397 0.61191,-0.25496 1.27481,-0.25496 0.71389,0 1.27481,0.50992 0.56091,0.50992 0.56091,1.3258 0,1.17283 -1.17282,1.78474 -0.91787,0.40793 -1.98871,0.6629 -1.01984,0.25496 -2.24366,0.25496 z"
       id="text12"
       transform="matrix(0.29056645,0,0,0.29056645,-11.196464,-11.002162)"
       aria-label="earthkit" />
    <path
       style="font-size:38.8513px;font-family:'Varela Round';-inkscape-font-specification:'Varela Round';white-space:pre;shape-padding:4.75644;fill:#8d5fd3;stroke:#8d5fd3;stroke-width:2.06493;stroke-linecap:round;stroke-linejoin:round"
       d="m 306.85076,138.6566 q -0.73817,0 -1.24324,-0.50507 -0.50506,-0.50507 -0.50506,-1.24324 v -16.66721 q 0,-0.73817 0.50506,-1.24324 0.50507,-0.54392 1.24324,-0.54392 0.73818,0 1.24325,0.54392 0.54391,0.50507 0.54391,1.24324 v 1.67061 q 1.04899,-1.39865 2.56419,-2.52534 1.5152,-1.12668 3.53547,-1.12668 h 0.19425 q 0.73818,0 1.20439,0.50506 0.50507,0.50507 0.50507,1.24324 0,0.73818 -0.50507,1.20439 -0.50506,0.46622 -1.28209,0.46622 h -0.19425 q -1.90372,0 -3.45777,0.97128 -1.55405,0.93243 -2.56419,2.44763 v 11.8108 q 0,0.73817 -0.54391,1.24324 -0.50507,0.50507 -1.24325,0.50507 z m 21.407,0.19425 q -4.73986,0 -7.4206,-2.68074 -2.64189,-2.71959 -2.64189,-7.61485 0,-2.64189 0.97128,-4.97297 0.97129,-2.36993 3.0304,-3.84628 2.05912,-1.47634 5.28378,-1.47634 2.99155,0 5.05067,1.39864 2.05912,1.3598 3.1081,3.57432 1.08784,2.21453 1.08784,4.81756 0,0.73818 -0.50507,1.24324 -0.46621,0.50507 -1.28209,0.50507 h -13.17059 q 0.31081,2.60304 1.98142,4.19594 1.6706,1.55405 4.81756,1.55405 1.74831,0 2.9527,-0.31081 1.20439,-0.34966 2.29222,-0.89358 0.31081,-0.1554 0.69933,-0.1554 0.62162,0 1.08783,0.42736 0.46622,0.42737 0.46622,1.08784 0,0.46621 -0.31081,0.85473 -0.27196,0.34966 -0.69933,0.58277 -1.28209,0.73817 -2.79729,1.24324 -1.47635,0.46621 -4.00168,0.46621 z m -6.48817,-11.92735 h 11.46113 q -0.11655,-2.02026 -1.04898,-3.2635 -0.89358,-1.24325 -2.17567,-1.82602 -1.2821,-0.58276 -2.52534,-0.58276 -1.24324,0 -2.52533,0.58276 -1.2821,0.58277 -2.17568,1.82602 -0.89358,1.24324 -1.01013,3.2635 z m 28.86652,20.86315 q -2.36993,0 -4.66216,-0.62162 -2.29223,-0.62162 -3.65202,-1.39864 -0.27196,-0.19426 -0.50507,-0.50507 -0.19426,-0.31081 -0.19426,-0.85473 0,-0.58277 0.42737,-1.08784 0.46621,-0.50506 1.12669,-0.50506 0.19425,0 0.34966,0.0388 0.19425,0.0388 0.34966,0.11655 1.24324,0.62162 2.83614,1.04899 1.59291,0.42736 3.57432,0.42736 5.94425,0 5.94425,-6.33276 v -2.60304 q -1.20439,1.28209 -2.83614,2.13682 -1.63176,0.81588 -3.80743,0.81588 -1.63175,0 -3.30236,-0.62162 -1.63175,-0.62162 -3.0304,-1.86486 -1.3598,-1.24324 -2.21453,-3.14696 -0.85472,-1.90371 -0.85472,-4.4679 0,-2.56418 0.85472,-4.4679 0.85473,-1.90371 2.21453,-3.14695 1.39865,-1.24324 3.0304,-1.86486 1.67061,-0.62162 3.30236,-0.62162 2.17567,0 3.80743,0.85472 1.63175,0.81588 2.83614,2.09797 v -0.97128 q 0,-0.73817 0.50507,-1.24324 0.50507,-0.54392 1.24324,-0.54392 0.73818,0 1.24324,0.54392 0.54392,0.50507 0.54392,1.24324 v 17.36653 q 0,4.89527 -2.36993,7.53715 -2.36993,2.64189 -6.76012,2.64189 z m -0.31081,-12.54897 q 2.02026,0 3.41891,-0.89358 1.39865,-0.89358 2.48648,-1.98141 v -8.00337 q -1.08783,-1.12669 -2.48648,-1.98142 -1.39865,-0.89358 -3.41891,-0.89358 -1.82602,0 -3.34122,0.73818 -1.5152,0.73817 -2.40878,2.29222 -0.85473,1.51521 -0.85473,3.84628 0,2.33108 0.85473,3.88513 0.89358,1.5152 2.40878,2.25338 1.5152,0.73817 3.34122,0.73817 z m 17.32762,3.41892 q -0.73818,0 -1.24324,-0.50507 -0.50507,-0.50507 -0.50507,-1.24324 v -16.66721 q 0,-0.73817 0.50507,-1.24324 0.50506,-0.54392 1.24324,-0.54392 0.73817,0 1.24324,0.54392 0.54392,0.50507 0.54392,1.24324 v 1.67061 q 1.04898,-1.39865 2.56418,-2.52534 1.5152,-1.12668 3.53547,-1.12668 h 0.19426 q 0.73817,0 1.20439,0.50506 0.50507,0.50507 0.50507,1.24324 0,0.73818 -0.50507,1.20439 -0.50507,0.46622 -1.28209,0.46622 h -0.19426 q -1.90371,0 -3.45777,0.97128 -1.55405,0.93243 -2.56418,2.44763 v 11.8108 q 0,0.73817 -0.54392,1.24324 -0.50507,0.50507 -1.24324,0.50507 z m 14.80232,-24.04896 q -0.81587,0 -1.39864,-0.58277 -0.58277,-0.58277 -0.58277,-1.39864 v -0.15541 q 0,-0.81588 0.58277,-1.39865 0.58277,-0.58276 1.39864,-0.58276 h 0.23311 q 0.81588,0 1.39865,0.58276 0.58277,0.58277 0.58277,1.39865 v 0.15541 q 0,0.81587 -0.58277,1.39864 -0.58277,0.58277 -1.39865,0.58277 z m 0.0777,24.04896 q -0.73818,0 -1.24325,-0.50507 -0.50506,-0.50507 -0.50506,-1.24324 v -16.66721 q 0,-0.77702 0.50506,-1.28209 0.50507,-0.50507 1.24325,-0.50507 0.77702,0 1.28209,0.50507 0.50507,0.50507 0.50507,1.28209 v 16.66721 q 0,0.73817 -0.50507,1.24324 -0.50507,0.50507 -1.28209,0.50507 z m 16.12323,0.19425 q -2.33108,0 -4.50675,-1.20439 -2.13682,-1.20439 -3.53547,-3.49661 -1.35979,-2.29223 -1.35979,-5.59459 0,-3.30236 1.35979,-5.59459 1.39865,-2.29222 3.53547,-3.49661 2.17567,-1.20439 4.50675,-1.20439 2.05912,0 3.69088,0.77702 1.63175,0.77703 2.95269,2.17567 v -9.51856 q 0,-0.77703 0.50507,-1.2821 0.54392,-0.50506 1.28209,-0.50506 0.73818,0 1.24325,0.50506 0.50506,0.50507 0.50506,1.2821 v 25.21449 q 0,0.73817 -0.50506,1.24324 -0.50507,0.50507 -1.24325,0.50507 -0.73817,0 -1.28209,-0.50507 -0.50507,-0.50507 -0.50507,-1.24324 v -1.01013 q -1.32094,1.39864 -2.95269,2.17567 -1.63176,0.77702 -3.69088,0.77702 z m 0.50507,-3.30236 q 1.90371,0 3.45776,-0.81587 1.55406,-0.85473 2.68074,-2.09797 v -8.15878 q -1.12668,-1.24324 -2.68074,-2.05912 -1.55405,-0.85472 -3.45776,-0.85472 -2.75844,0 -4.58445,1.78716 -1.78716,1.7483 -1.78716,5.20607 0,3.41891 1.78716,5.20607 1.82601,1.78716 4.58445,1.78716 z"
       id="text22"
       transform="matrix(0.29056645,0,0,0.29056645,-11.377085,3.0840107)"
       aria-label="regrid" />
    <path
       style="fill:#f9f9f9;stroke:none;stroke-width:0;stroke-linecap:square;stroke-dasharray:none"
       d="M 42.260316,67.25665 V 77.452879"
       id="path59" />
  </g>
  <g
     inkscape:groupmode="layer"
     id="layer2"
     inkscape:label="frame"
     transform="translate(-30.975453,-17.719192)"
     style="display:inline">
    <g
       id="g12"
       style="stroke:#c6afe9;stroke-width:2;stroke-dasharray:none">
      <g
         id="g11"
         style="stroke:#c6afe9;stroke-width:2;stroke-dasharray:none;stroke-opacity:1">
        <path
           d="m 58.642415,23.159827 a 14.233227,14.233227 0 0 1 0.02377,0.01964 14.233227,14.233227 0 0 1 0.535367,0.483174 14.233227,14.233227 0 0 1 0.50953,0.510047 14.233227,14.233227 0 0 1 0.483691,0.534851 14.233227,14.233227 0 0 1 0.455787,0.559139 14.233227,14.233227 0 0 1 0.426847,0.58136 14.233227,14.233227 0 0 1 0.396875,0.60203 14.233227,14.233227 0 0 1 0.365869,0.621151 14.233227,14.233227 0 0 1 0.33383,0.639237 14.233227,14.233227 0 0 1 0.300757,0.655257 14.233227,14.233227 0 0 1 0.267684,0.669727 14.233227,14.233227 0 0 1 0.23306,0.682646 14.233227,14.233227 0 0 1 0.198438,0.692981 14.233227,14.233227 0 0 1 0.163297,0.702799 14.233227,14.233227 0 0 1 0.127124,0.709518 14.233227,14.233227 0 0 1 0.09095,0.715718 14.233227,14.233227 0 0 1 0.05478,0.718819 14.233227,14.233227 0 0 1 0.01809,0.720887 14.233227,14.233227 0 0 1 -0.144694,2.025716 14.233227,14.233227 0 0 1 -0.431499,1.984375 14.233227,14.233227 0 0 1 -0.710034,1.902726 14.233227,14.233227 0 0 1 -0.973067,1.78232 14.233227,14.233227 0 0 1 -1.21698,1.625741 14.233227,14.233227 0 0 1 -1.436088,1.436088 14.233227,14.233227 0 0 1 -0.187069,0.140043 l 2.83962,3.388423 a 18.639271,18.639271 0 0 0 1.67535,-1.591634 18.639271,18.639271 0 0 0 1.46606,-1.785937 18.639271,18.639271 0 0 0 1.233517,-1.954403 18.639271,18.639271 0 0 0 0.981852,-2.091345 18.639271,18.639271 0 0 0 0.716235,-2.197282 18.639271,18.639271 0 0 0 0.438217,-2.269112 18.639271,18.639271 0 0 0 0.154512,-2.305286 18.639271,18.639271 0 0 0 -0.0026,-0.404626 18.639271,18.639271 0 0 0 -0.01085,-0.404627 18.639271,18.639271 0 0 0 -0.02015,-0.404109 18.639271,18.639271 0 0 0 -0.02894,-0.403593 18.639271,18.639271 0 0 0 -0.03721,-0.403076 18.639271,18.639271 0 0 0 -0.04651,-0.402043 18.639271,18.639271 0 0 0 -0.05478,-0.400492 18.639271,18.639271 0 0 0 -0.06356,-0.399976 18.639271,18.639271 0 0 0 -0.07235,-0.397909 18.639271,18.639271 0 0 0 -0.08113,-0.396358 18.639271,18.639271 0 0 0 -0.0894,-0.394808 18.639271,18.639271 0 0 0 -0.09819,-0.392741 18.639271,18.639271 0 0 0 -0.106453,-0.390157 18.639271,18.639271 0 0 0 -0.115239,-0.38809 18.639271,18.639271 0 0 0 -0.123506,-0.385506 18.639271,18.639271 0 0 0 -0.131258,-0.382405 18.639271,18.639271 0 0 0 -0.140043,-0.379822 18.639271,18.639271 0 0 0 -0.148312,-0.376205 18.639271,18.639271 0 0 0 -0.156579,-0.373104 18.639271,18.639271 0 0 0 -0.164331,-0.370003 18.639271,18.639271 0 0 0 -0.1726,-0.365869 A 18.639271,18.639271 0 0 0 65.989752,25.49147 18.639271,18.639271 0 0 0 65.801668,25.13335 18.639271,18.639271 0 0 0 65.605815,24.778849 18.639271,18.639271 0 0 0 65.402209,24.429517 18.639271,18.639271 0 0 0 65.19137,24.084318 18.639271,18.639271 0 0 0 64.972778,23.74377 18.639271,18.639271 0 0 0 64.746952,23.407874 18.639271,18.639271 0 0 0 64.513892,23.077144 18.639271,18.639271 0 0 0 64.273596,22.751583 18.639271,18.639271 0 0 0 64.026583,22.431189 18.639271,18.639271 0 0 0 63.772335,22.115963 18.639271,18.639271 0 0 0 63.511369,21.806938 18.639271,18.639271 0 0 0 63.243685,21.50308 18.639271,18.639271 0 0 0 62.9698,21.205424 18.639271,18.639271 0 0 0 62.689197,20.913969 18.639271,18.639271 0 0 0 62.402393,20.628198 18.639271,18.639271 0 0 0 62.109387,20.349146 18.639271,18.639271 0 0 0 61.810697,20.076294 18.639271,18.639271 0 0 0 61.505806,19.81016 Z"
           style="fill:none;stroke:#c6afe9;stroke-width:2;stroke-linecap:square;stroke-linejoin:round;stroke-dasharray:none;stroke-opacity:1"
           id="path8" />
        <path
           d="m 61.600374,26.902234 a 14.107161,14.107161 0 0 1 0.273369,0.483691 14.107161,14.107161 0 0 1 0.339514,0.684713 14.107161,14.107161 0 0 1 0.30179,0.701766 14.107161,14.107161 0 0 1 0.26355,0.717269 14.107161,14.107161 0 0 1 0.224276,0.730188 14.107161,14.107161 0 0 1 0.184485,0.741557 14.107161,14.107161 0 0 1 0.144177,0.750341 14.107161,14.107161 0 0 1 0.102836,0.75706 14.107161,14.107161 0 0 1 0.06201,0.761194 14.107161,14.107161 0 0 1 0.02067,0.763778 14.107161,14.107161 0 0 1 -0.173633,2.2071 14.107161,14.107161 0 0 1 -0.516764,2.152324 14.107161,14.107161 0 0 1 -0.846977,2.045353 14.107161,14.107161 0 0 1 -0.199987,0.326595 l 8.019665,4.188891 a 23.109167,23.109167 0 0 0 0.253731,-0.499711 23.109167,23.109167 0 0 0 0.240813,-0.505395 23.109167,23.109167 0 0 0 0.228926,-0.511597 23.109167,23.109167 0 0 0 0.216524,-0.516764 23.109167,23.109167 0 0 0 0.203606,-0.521932 23.109167,23.109167 0 0 0 0.191202,-0.526583 23.109167,23.109167 0 0 0 0.178284,-0.531234 23.109167,23.109167 0 0 0 0.165365,-0.535368 23.109167,23.109167 0 0 0 0.152445,-0.538985 23.109167,23.109167 0 0 0 0.13901,-0.543119 23.109167,23.109167 0 0 0 0.12609,-0.545703 23.109167,23.109167 0 0 0 0.112655,-0.548804 23.109167,23.109167 0 0 0 0.09922,-0.551387 23.109167,23.109167 0 0 0 0.08578,-0.553972 23.109167,23.109167 0 0 0 0.07286,-0.555521 23.109167,23.109167 0 0 0 0.05891,-0.557072 23.109167,23.109167 0 0 0 0.04548,-0.558106 23.109167,23.109167 0 0 0 0.03204,-0.559656 23.109167,23.109167 0 0 0 0.0186,-0.560172 23.109167,23.109167 0 0 0 0.0046,-0.560173 23.109167,23.109167 0 0 0 -0.0088,-0.560172 23.109167,23.109167 0 0 0 -0.02222,-0.559656 23.109167,23.109167 0 0 0 -0.03617,-0.559139 23.109167,23.109167 0 0 0 -0.04961,-0.558105 23.109167,23.109167 0 0 0 -0.06253,-0.556556 23.109167,23.109167 0 0 0 -0.07648,-0.555521 23.109167,23.109167 0 0 0 -0.08992,-0.552938 23.109167,23.109167 0 0 0 -0.103353,-0.550354 23.109167,23.109167 0 0 0 -0.116789,-0.548287 23.109167,23.109167 0 0 0 -0.129707,-0.545186 23.109167,23.109167 0 0 0 -0.143144,-0.541569 23.109167,23.109167 0 0 0 -0.156063,-0.537952 23.109167,23.109167 0 0 0 -0.168982,-0.534334 23.109167,23.109167 0 0 0 -0.181901,-0.529684 23.109167,23.109167 0 0 0 -0.19482,-0.525549 23.109167,23.109167 0 0 0 -0.207739,-0.520382 23.109167,23.109167 0 0 0 -0.220142,-0.515214 23.109167,23.109167 0 0 0 -0.232544,-0.510046 23.109167,23.109167 0 0 0 -0.244429,-0.503845 23.109167,23.109167 0 0 0 -0.256832,-0.497644 23.109167,23.109167 0 0 0 -0.269234,-0.49196 23.109167,23.109167 0 0 0 -0.280603,-0.484725 z"
           style="fill:none;fill-opacity:0;stroke:#c6afe9;stroke-width:2;stroke-linecap:square;stroke-linejoin:round;stroke-dasharray:none;stroke-opacity:1"
           id="path13" />
        <path
           style="fill:none;stroke:#c6afe9;stroke-width:2;stroke-linecap:square;stroke-linejoin:round;stroke-dasharray:none;stroke-opacity:1"
           d="m 63.395655,35.866525 8.494705,1.730404"
           id="path10" />
        <path
           style="fill:none;stroke:#c6afe9;stroke-width:2;stroke-linecap:square;stroke-linejoin:round;stroke-dasharray:none;stroke-opacity:1"
           d="m 63.395655,31.304555 8.337397,-1.573093"
           id="path11" />
      </g>
      <path
         style="fill:none;stroke:#c6afe9;stroke-width:2;stroke-linecap:round;stroke-linejoin:round;stroke-dasharray:none;stroke-opacity:1"
         id="path12"
         sodipodi:type="arc"
         sodipodi:cx="49.237816"
         sodipodi:cy="33.978817"
         sodipodi:rx="17.230442"
         sodipodi:ry="17.230442"
         sodipodi:start="4.0660296"
         sodipodi:end="4.2294201"
         sodipodi:arc-type="arc"
         d="m 38.860193,20.224069 a 17.230442,17.230442 0 0 1 2.375624,-1.504877"
         sodipodi:open="true" />
      <path
         style="fill:none;stroke:#c6afe9;stroke-width:2;stroke-linecap:round;stroke-linejoin:round;stroke-dasharray:none;stroke-opacity:1"
         id="path12-1"
         sodipodi:type="arc"
         sodipodi:cx="49.205894"
         sodipodi:cy="34.057484"
         sodipodi:rx="17.230442"
         sodipodi:ry="17.230442"
         sodipodi:start="3.0382093"
         sodipodi:end="3.3111615"
         sodipodi:arc-type="arc"
         d="m 32.067451,35.835653 a 17.230442,17.230442 0 0 1 0.155127,-4.685934"
         sodipodi:open="true" />
      <path
         style="fill:none;stroke:#c6afe9;stroke-width:2;stroke-linecap:round;stroke-linejoin:round;stroke-dasharray:none;stroke-opacity:1"
         id="path12-18"
         sodipodi:type="arc"
         sodipodi:cx="49.193039"
         sodipodi:cy="33.944946"
         sodipodi:rx="17.230442"
         sodipodi:ry="17.230442"
         sodipodi:start="2.6616567"
         sodipodi:end="2.7961599"
         sodipodi:arc-type="arc"
         d="M 33.909215,41.900627 A 17.230442,17.230442 0 0 1 32.980416,39.779241"
         sodipodi:open="true" />
      <g
         id="g1"
         style="stroke:#c6afe9;stroke-width:2;stroke-dasharray:none;stroke-opacity:1" />
    </g>
  </g>
  <g
     inkscape:groupmode="layer"
     id="layer4"
     inkscape:label="cube 1">
    <rect
       style="fill:#8d5fd3;fill-opacity:1;stroke:#f9f9f9;stroke-width:0;stroke-linecap:round;stroke-dasharray:none;stroke-opacity:1"
       id="rect2"
       width="4.9769106"
       height="4.9769106"
       x="9.6183805"
       y="19.849546"
       sodipodi:type="rect" />
    <rect
       style="fill:#a37fdc;fill-opacity:1;stroke:#f9f9f9;stroke-width:0;stroke-linecap:round;stroke-dasharray:none;stroke-opacity:1"
       id="rect2-7"
       width="4.9769106"
       height="4.9769106"
       x="15.840332"
       y="19.849546"
       sodipodi:type="rect" />
    <rect
       style="fill:#ba9fe5;fill-opacity:1;stroke:#f9f9f9;stroke-width:0;stroke-linecap:round;stroke-dasharray:none;stroke-opacity:1"
       id="rect2-73"
       width="4.9769106"
       height="4.9769106"
       x="22.062283"
       y="19.849546"
       sodipodi:type="rect" />
    <rect
       style="fill:#a37fdc;fill-opacity:1;stroke:#f9f9f9;stroke-width:0;stroke-linecap:round;stroke-dasharray:none;stroke-opacity:1"
       id="rect2-71"
       width="4.9769106"
       height="4.9769106"
       x="9.6183805"
       y="13.627596"
       sodipodi:type="rect" />
    <rect
       style="fill:#ba9fe5;fill-opacity:1;stroke:#f9f9f9;stroke-width:0;stroke-linecap:round;stroke-dasharray:none;stroke-opacity:1"
       id="rect2-7-8"
       width="4.9769106"
       height="4.9769106"
       x="15.840332"
       y="13.627596"
       sodipodi:type="rect" />
    <rect
       style="fill:#d2bfed;fill-opacity:1;stroke:#f9f9f9;stroke-width:0;stroke-linecap:round;stroke-dasharray:none;stroke-opacity:1"
       id="rect2-73-9"
       width="4.9769106"
       height="4.9769106"
       x="22.062283"
       y="13.627596"
       sodipodi:type="rect" />
    <rect
       style="fill:#ba9fe5;fill-opacity:1;stroke:#f9f9f9;stroke-width:0;stroke-linecap:round;stroke-dasharray:none;stroke-opacity:1"
       id="rect2-0"
       width="4.9769106"
       height="4.9769106"
       x="9.6183805"
       y="7.4056463"
       sodipodi:type="rect" />
    <rect
       style="fill:#d2bfed;fill-opacity:1;stroke:#f9f9f9;stroke-width:0;stroke-linecap:round;stroke-dasharray:none;stroke-opacity:1"
       id="rect2-7-4"
       width="4.9769106"
       height="4.9769106"
       x="15.840332"
       y="7.4056463"
       sodipodi:type="rect" />
    <rect
       style="fill:#e8dff6;fill-opacity:1;stroke:#f9f9f9;stroke-width:0;stroke-linecap:round;stroke-dasharray:none;stroke-opacity:1"
       id="rect2-73-0"
       width="4.9769106"
       height="4.9769106"
       x="22.062283"
       y="7.4056463"
       sodipodi:type="rect" />
  </g>
  <g
     inkscape:groupmode="layer"
     id="g22"
     inkscape:label="globe"
     transform="translate(-30.975453,-17.719192)"
     style="display:inline">
    <g
       id="g21"
       style="display:inline;stroke:#8d5fd3;stroke-width:2.2;stroke-dasharray:none">
      <g
         id="g20"
         style="stroke:#8d5fd3;stroke-width:2.2;stroke-linecap:square;stroke-dasharray:none;stroke-opacity:1">
        <path
           id="path20"
           style="fill:none;fill-opacity:0;stroke:#8d5fd3;stroke-linecap:square;stroke-linejoin:round;stroke-width:2.2;stroke-dasharray:none"
           d="M 63.628452,33.979225 A 14.233227,14.233227 0 0 1 49.395226,48.212452 14.233227,14.233227 0 0 1 35.161999,33.979225 14.233227,14.233227 0 0 1 49.395226,19.745998 14.233227,14.233227 0 0 1 63.628452,33.979225 Z" />
      </g>
      <g
         inkscape:groupmode="layer"
         id="layer3"
         inkscape:label="cube"
         style="stroke:#8d5fd3;stroke-width:2.2;stroke-dasharray:none" />
    </g>
  </g>
</svg>
