<svg id="svg" xmlns="http://www.w3.org/2000/svg" xmlns:xlink="http://www.w3.org/1999/xlink" width="400px" height="400px" viewBox="0, 0, 400,400" transform="rotate(0) scale(1, 1)"><g id="svgg"><path id="path0" d="M56.317 50.146 C 50.905 50.936,46.850 54.786,45.631 60.292 C 45.328 61.662,45.328 62.065,45.633 63.393 C 46.277 66.205,47.796 68.833,49.815 70.633 C 51.897 72.488,52.635 73.413,52.997 74.625 C 53.156 75.155,53.245 102.093,53.094 103.781 C 52.952 105.361,52.663 106.024,51.118 108.320 C 48.634 112.012,48.081 112.952,46.331 116.455 C 44.155 120.811,43.110 121.986,40.845 122.621 C 35.178 124.208,31.044 126.924,28.544 130.700 C 26.287 134.108,24.715 138.169,24.219 141.875 C 24.142 142.450,24.005 143.336,23.915 143.843 C 23.761 144.709,23.748 145.026,23.721 148.939 C 23.691 153.240,23.726 154.196,24.000 156.544 C 24.078 157.214,24.192 158.281,24.254 158.914 C 24.604 162.488,26.082 166.590,28.127 169.663 C 31.001 173.983,34.664 176.587,40.539 178.488 C 43.363 179.401,44.322 180.346,45.937 183.806 C 46.341 184.671,46.795 185.643,46.947 185.966 C 48.959 190.258,52.033 195.048,54.721 198.080 C 55.694 199.178,60.121 203.554,60.990 204.277 C 64.693 207.358,69.195 209.979,75.023 212.446 C 76.948 213.260,77.425 213.540,78.148 214.279 L 78.789 214.934 78.789 215.698 L 78.789 216.462 78.254 216.985 C 77.210 218.004,77.429 217.983,67.307 218.054 C 58.638 218.115,58.730 218.112,57.116 218.451 C 56.832 218.511,56.201 218.614,55.713 218.680 C 52.193 219.159,47.192 221.024,43.567 223.209 C 35.712 227.943,30.487 233.421,25.385 242.274 C 23.517 245.515,22.260 248.261,20.179 253.646 C 19.371 255.737,18.253 259.403,17.568 262.212 C 17.484 262.557,17.320 263.221,17.204 263.688 C 17.088 264.155,16.940 264.870,16.876 265.276 C 16.812 265.682,16.662 266.496,16.544 267.085 C 16.425 267.674,16.291 268.555,16.245 269.042 C 16.199 269.529,16.082 270.410,15.985 270.999 C 15.729 272.547,15.666 273.190,15.579 275.150 C 15.527 276.330,15.438 277.307,15.307 278.141 C 14.953 280.407,14.975 283.875,15.362 286.653 C 15.439 287.201,15.554 288.381,15.617 289.275 C 15.736 290.933,15.754 291.083,16.015 292.560 C 16.097 293.028,16.201 293.742,16.246 294.148 C 16.291 294.554,16.409 295.254,16.509 295.703 C 16.608 296.152,16.768 296.916,16.865 297.401 C 17.482 300.505,19.105 305.838,20.526 309.433 C 20.735 309.961,20.966 310.559,21.039 310.762 C 21.455 311.913,22.206 313.493,23.007 314.905 C 23.524 315.815,24.000 316.944,24.156 317.630 C 24.236 317.982,24.252 318.896,24.234 322.097 C 24.201 327.879,24.542 330.168,25.961 333.667 C 29.544 342.505,36.611 348.331,45.743 349.972 C 46.272 350.067,47.020 350.215,47.406 350.300 C 48.820 350.611,52.466 350.643,53.498 350.354 C 55.664 349.747,56.619 348.760,57.192 346.539 C 57.608 344.925,56.916 343.136,55.546 342.281 C 54.182 341.430,53.305 341.236,50.404 341.147 C 48.004 341.074,47.850 341.057,46.188 340.674 C 39.683 339.177,34.246 332.921,33.678 326.279 C 33.181 320.455,34.748 315.866,38.385 312.503 C 44.782 306.585,53.998 306.031,60.014 311.202 C 63.935 314.573,66.380 318.369,68.124 323.795 C 69.902 329.330,70.272 330.269,71.249 331.745 C 72.619 333.812,75.414 335.442,78.006 335.687 C 79.541 335.832,171.296 335.742,171.977 335.595 C 172.282 335.529,173.096 335.371,173.786 335.243 C 178.386 334.391,182.385 332.589,186.486 329.520 C 190.709 326.360,194.178 320.589,195.496 314.528 C 195.602 314.041,195.753 313.343,195.832 312.978 C 196.035 312.032,196.123 310.395,196.123 307.569 C 196.123 305.589,196.153 304.833,196.278 303.656 C 196.423 302.300,196.429 301.985,196.372 299.206 C 196.270 294.228,196.368 289.771,196.599 288.918 C 196.805 288.156,197.599 287.263,198.412 286.881 C 198.980 286.614,201.099 286.599,202.326 286.853 C 202.752 286.941,203.666 287.066,204.357 287.131 C 205.047 287.196,206.210 287.353,206.941 287.481 L 208.270 287.713 213.172 287.743 C 218.428 287.774,219.218 287.741,220.735 287.427 C 221.221 287.326,221.954 287.191,222.365 287.126 C 222.776 287.061,223.445 286.931,223.851 286.836 C 224.257 286.742,224.971 286.609,225.438 286.541 C 226.620 286.370,229.388 285.660,231.530 284.979 C 235.418 283.743,241.778 280.700,244.822 278.619 C 250.678 274.614,254.706 270.774,259.011 265.091 C 260.744 262.804,261.501 261.646,263.427 258.343 C 264.002 257.358,265.745 253.986,266.732 251.952 C 268.277 248.767,269.385 247.773,272.051 247.181 C 275.349 246.449,278.691 244.802,281.282 242.633 C 283.674 240.629,285.956 236.200,286.437 232.626 C 286.618 231.284,286.485 223.259,286.262 222.042 C 286.030 220.775,285.916 219.592,285.915 218.423 C 285.913 217.249,285.802 216.104,285.587 215.049 C 285.487 214.557,285.352 213.844,285.287 213.464 C 284.687 209.957,283.190 206.596,280.935 203.692 C 278.628 200.723,274.603 198.291,269.633 196.865 C 267.674 196.303,267.313 196.123,266.431 195.275 C 265.337 194.222,265.197 193.895,264.864 191.605 C 264.448 188.742,264.588 187.767,265.560 186.763 C 266.804 185.476,268.383 185.426,272.069 186.555 C 273.187 186.898,274.896 187.413,276.131 187.780 C 276.699 187.949,277.580 188.216,278.088 188.373 C 278.595 188.530,279.526 188.811,280.155 188.998 C 280.785 189.186,281.715 189.469,282.223 189.627 C 283.569 190.047,284.970 190.456,286.395 190.846 C 287.841 191.241,289.264 191.659,290.530 192.063 C 291.479 192.365,292.376 192.628,293.557 192.950 C 293.963 193.060,294.645 193.257,295.071 193.386 C 298.595 194.452,299.533 194.727,301.126 195.158 C 302.465 195.521,303.840 195.925,305.335 196.395 C 308.385 197.355,308.610 197.423,310.430 197.935 C 312.411 198.492,312.729 198.583,313.661 198.860 C 314.199 199.020,315.079 199.282,315.618 199.442 C 316.156 199.601,316.912 199.822,317.297 199.932 C 317.683 200.042,318.431 200.263,318.959 200.424 C 320.479 200.886,322.142 201.354,322.983 201.559 C 323.410 201.662,324.124 201.858,324.571 201.993 C 325.018 202.128,325.848 202.376,326.417 202.545 C 329.563 203.478,329.335 203.383,332.804 205.191 C 336.486 207.109,338.294 207.331,341.059 206.204 C 344.706 204.718,347.101 200.440,348.088 193.650 C 348.171 193.081,348.302 192.284,348.381 191.877 C 348.574 190.879,348.590 190.751,348.718 189.182 C 348.779 188.431,348.893 187.351,348.972 186.782 C 349.260 184.695,349.282 183.732,349.253 174.598 C 349.225 165.886,349.223 165.804,349.061 164.962 C 348.794 163.579,348.754 163.180,348.682 161.200 C 348.634 159.882,348.566 159.046,348.457 158.427 C 348.206 156.994,348.176 156.784,348.056 155.621 C 347.993 155.012,347.876 154.175,347.796 153.761 C 347.715 153.348,347.566 152.362,347.464 151.571 C 347.362 150.780,347.212 149.822,347.130 149.443 C 347.049 149.064,346.918 148.222,346.840 147.572 C 346.705 146.448,346.555 145.690,345.984 143.253 C 345.846 142.664,345.681 141.866,345.616 141.481 C 345.509 140.844,345.365 140.199,344.693 137.345 C 344.573 136.838,344.423 136.132,344.360 135.776 C 344.240 135.103,343.862 133.625,343.534 132.546 C 343.429 132.200,343.236 131.503,343.106 130.995 C 342.976 130.487,342.710 129.490,342.516 128.780 C 342.322 128.069,342.073 127.155,341.962 126.749 C 341.413 124.726,340.200 121.058,338.933 117.593 C 338.725 117.024,338.461 116.293,338.345 115.968 C 338.038 115.104,336.780 111.957,336.381 111.058 C 336.192 110.631,335.945 110.066,335.831 109.802 C 335.717 109.538,335.286 108.591,334.872 107.698 C 334.458 106.805,334.025 105.857,333.909 105.594 C 333.634 104.965,332.495 102.716,331.629 101.089 C 331.251 100.378,330.624 99.199,330.237 98.468 C 326.999 92.355,324.560 90.004,320.620 89.199 C 319.202 88.909,317.470 89.359,315.564 90.514 C 313.763 91.604,312.887 92.524,311.156 95.145 C 309.728 97.306,308.155 98.865,304.634 101.603 C 303.984 102.108,302.821 103.023,302.049 103.635 C 301.277 104.246,300.181 105.110,299.612 105.553 C 299.044 105.996,297.731 107.032,296.696 107.855 C 295.660 108.679,293.714 110.226,292.371 111.294 C 291.027 112.362,289.485 113.585,288.943 114.011 C 288.401 114.438,287.221 115.385,286.320 116.116 C 284.698 117.432,280.222 120.964,276.943 123.514 C 276.009 124.240,274.181 125.682,272.882 126.719 C 271.582 127.755,270.120 128.920,269.633 129.309 C 269.145 129.697,268.381 130.310,267.934 130.672 C 267.488 131.034,266.408 131.875,265.534 132.542 C 263.842 133.835,262.465 134.918,260.535 136.474 C 258.255 138.313,257.014 138.974,255.221 139.305 C 254.862 139.371,254.234 139.503,253.825 139.599 C 253.416 139.695,252.602 139.839,252.016 139.921 C 251.430 140.002,250.637 140.139,250.253 140.224 C 249.869 140.310,249.038 140.460,248.407 140.557 C 247.775 140.655,246.976 140.799,246.631 140.879 C 246.286 140.958,245.638 141.079,245.191 141.147 C 244.744 141.215,244.013 141.350,243.567 141.449 C 243.120 141.547,242.306 141.693,241.757 141.773 C 241.209 141.853,240.428 141.987,240.022 142.071 C 239.616 142.155,238.719 142.291,238.029 142.373 C 236.681 142.532,235.524 142.761,232.055 143.554 C 225.983 144.943,221.038 148.324,217.663 153.396 C 214.605 157.992,213.018 165.330,214.063 170.042 C 214.141 170.396,214.274 171.095,214.358 171.596 C 215.325 177.379,219.510 183.246,224.852 186.308 C 228.105 188.173,230.595 189.043,233.709 189.404 C 237.144 189.802,237.937 190.432,239.847 194.284 C 241.042 196.692,241.127 196.959,241.121 198.265 C 241.113 199.864,240.955 200.169,239.212 201.957 C 236.528 204.709,235.719 205.768,234.609 207.984 C 231.996 213.202,231.106 219.057,231.970 225.340 C 232.192 226.954,232.339 229.705,232.274 231.013 C 232.159 233.299,231.663 234.180,228.909 236.984 C 224.408 241.568,220.916 243.517,215.064 244.713 C 211.103 245.523,207.108 245.180,201.661 243.564 C 201.194 243.425,200.713 243.289,200.591 243.261 C 199.766 243.071,197.612 242.142,196.927 241.681 C 195.391 240.648,194.655 239.640,192.964 236.256 C 190.664 231.651,189.786 230.382,186.936 227.541 C 182.724 223.342,177.371 220.382,171.977 219.272 C 171.510 219.176,170.845 219.029,170.500 218.947 C 170.155 218.865,169.524 218.745,169.097 218.682 C 168.671 218.619,167.890 218.483,167.362 218.381 C 166.001 218.116,164.494 218.060,158.671 218.057 C 151.338 218.053,150.275 217.919,149.275 216.871 L 148.865 216.441 148.865 215.717 L 148.865 214.994 149.474 214.397 C 150.195 213.690,151.064 213.213,153.111 212.404 C 158.431 210.300,161.434 208.648,165.590 205.536 C 168.918 203.044,173.604 198.389,175.880 195.315 C 178.919 191.210,182.137 185.409,184.095 180.506 C 185.512 176.957,186.186 176.141,189.256 174.263 C 193.180 171.863,196.167 167.868,197.384 163.390 C 197.506 162.942,197.620 162.553,197.638 162.524 C 197.686 162.447,198.333 159.170,198.416 158.587 C 198.482 158.122,198.567 155.697,198.685 150.969 C 198.728 149.206,198.640 145.302,198.486 142.219 C 198.310 138.671,196.608 133.572,194.654 130.737 C 192.485 127.588,190.765 126.253,186.190 124.165 C 183.893 123.116,182.957 122.065,181.130 118.478 C 179.616 115.506,178.806 114.141,176.460 110.615 C 174.863 108.214,174.367 107.540,173.012 105.926 C 169.236 101.428,168.818 100.826,168.496 99.422 C 168.321 98.657,168.350 75.224,168.528 74.582 C 168.886 73.286,169.096 73.023,172.026 70.223 C 174.009 68.328,175.531 65.015,175.716 62.188 C 175.894 59.468,174.364 55.629,172.264 53.527 C 169.714 50.975,165.266 49.552,162.341 50.354 C 161.853 50.487,161.285 50.641,161.078 50.696 C 159.385 51.143,156.907 52.501,155.832 53.570 C 154.406 54.987,152.952 58.099,152.406 60.902 C 152.138 62.278,152.759 64.934,153.836 67.011 C 154.311 67.928,155.122 68.941,156.614 70.482 C 158.087 72.003,158.350 72.366,158.713 73.379 L 158.944 74.026 158.965 80.390 C 158.991 88.128,159.028 87.843,157.862 88.942 C 157.267 89.504,157.078 89.569,156.024 89.569 C 154.797 89.570,154.592 89.496,152.557 88.313 C 150.496 87.115,146.398 84.892,145.279 84.365 C 143.070 83.324,138.230 81.444,136.238 80.853 C 135.974 80.775,135.475 80.613,135.130 80.494 C 133.828 80.042,131.965 79.574,129.371 79.046 C 128.700 78.910,127.870 78.733,127.524 78.652 C 127.179 78.572,126.515 78.451,126.048 78.385 C 125.581 78.319,124.800 78.185,124.312 78.087 C 123.825 77.989,122.878 77.856,122.208 77.791 C 121.538 77.727,120.375 77.568,119.623 77.438 L 118.257 77.201 113.125 77.203 L 107.993 77.206 106.687 77.403 C 105.968 77.512,104.938 77.637,104.398 77.680 C 103.857 77.723,103.010 77.791,102.515 77.830 C 101.647 77.899,99.172 78.362,97.652 78.740 C 97.248 78.840,96.698 78.959,96.430 79.004 C 95.963 79.081,94.551 79.429,91.785 80.146 C 88.917 80.889,85.019 82.318,81.337 83.976 C 77.024 85.918,73.305 87.939,69.337 90.497 C 67.028 91.986,66.812 92.076,65.534 92.078 C 64.483 92.080,64.310 92.015,63.642 91.366 C 63.005 90.745,62.728 90.239,62.610 89.475 C 62.469 88.571,62.562 74.615,62.712 74.113 C 63.018 73.085,63.319 72.630,64.500 71.409 C 68.204 67.579,69.702 63.728,68.871 60.175 C 68.068 56.744,66.816 54.655,64.421 52.750 C 61.966 50.798,58.805 49.782,56.317 50.146 M357.947 80.406 C 356.663 80.782,355.949 81.328,354.924 82.721 C 352.567 85.921,351.412 87.518,349.518 90.198 C 349.030 90.888,348.111 92.176,347.476 93.060 C 345.336 96.038,344.679 97.469,344.899 98.671 C 345.281 100.759,347.273 101.985,349.170 101.300 C 350.512 100.816,351.376 99.937,353.336 97.065 C 354.672 95.107,356.991 91.856,357.655 91.010 C 360.521 87.359,362.045 84.771,362.045 83.560 C 362.045 81.640,359.755 79.877,357.947 80.406 M116.190 87.061 C 120.706 87.142,121.788 87.206,122.980 87.462 C 123.429 87.558,124.061 87.674,124.386 87.719 C 127.185 88.108,132.867 89.609,135.832 90.742 C 144.706 94.133,150.799 97.809,158.316 104.307 C 159.344 105.195,162.736 108.648,163.715 109.802 C 166.922 113.583,168.203 115.304,170.149 118.442 C 172.779 122.685,174.253 125.680,175.837 129.998 C 176.605 132.093,177.818 136.452,178.107 138.158 C 178.152 138.422,178.300 139.136,178.437 139.745 C 178.855 141.609,179.140 143.235,179.259 144.434 C 179.322 145.064,179.471 146.293,179.591 147.166 C 180.028 150.336,180.038 153.862,179.620 156.766 C 179.510 157.525,179.389 158.899,179.325 160.095 C 179.244 161.605,179.167 162.398,179.024 163.159 C 178.919 163.724,178.769 164.614,178.692 165.137 C 178.616 165.659,178.470 166.456,178.370 166.909 C 178.269 167.361,178.137 168.047,178.075 168.433 C 176.792 176.504,171.025 187.538,164.745 193.936 C 158.740 200.053,150.816 204.174,143.142 205.170 C 142.411 205.265,141.414 205.412,140.927 205.497 C 139.253 205.788,138.065 205.801,114.528 205.775 C 90.823 205.749,91.461 205.757,88.942 205.428 C 88.333 205.349,87.253 205.232,86.542 205.168 C 74.509 204.097,64.182 197.130,57.591 185.638 C 55.798 182.512,55.297 181.247,55.251 179.730 C 55.192 177.762,55.220 177.718,58.589 174.488 C 61.472 171.723,63.854 167.324,65.126 162.415 C 65.545 160.796,65.556 160.721,65.835 157.320 C 66.115 153.913,66.134 143.956,65.864 142.297 C 65.781 141.787,65.663 141.021,65.603 140.594 C 64.846 135.300,62.003 129.996,57.997 126.406 C 55.369 124.051,55.197 123.771,55.197 121.876 L 55.197 120.546 55.517 119.808 C 56.327 117.945,58.817 114.055,60.631 111.821 C 64.188 107.439,64.918 106.694,69.449 102.821 C 75.389 97.743,84.006 92.726,90.050 90.826 C 90.212 90.775,90.594 90.641,90.899 90.527 C 91.894 90.158,95.067 89.197,96.031 88.973 C 96.234 88.926,96.698 88.804,97.062 88.702 C 97.426 88.600,98.141 88.441,98.650 88.350 C 99.159 88.258,100.090 88.080,100.720 87.955 C 104.176 87.267,104.454 87.230,107.144 87.099 C 109.602 86.979,111.272 86.972,116.190 87.061 M322.447 106.447 C 322.960 106.703,324.028 107.834,324.470 108.589 C 325.957 111.131,328.103 115.926,329.143 119.033 C 329.409 119.825,329.972 121.460,330.396 122.667 C 330.819 123.874,331.337 125.419,331.545 126.100 C 331.754 126.782,332.038 127.705,332.175 128.152 C 332.313 128.599,332.479 129.180,332.544 129.444 C 332.610 129.708,332.748 130.181,332.850 130.496 C 333.144 131.393,334.027 134.697,334.287 135.869 C 334.619 137.361,335.047 139.209,335.220 139.893 C 335.322 140.299,335.500 141.081,335.613 141.630 C 335.727 142.179,335.888 142.894,335.970 143.218 C 336.053 143.542,336.173 144.129,336.236 144.523 C 336.299 144.917,336.435 145.610,336.538 146.064 C 336.640 146.518,336.791 147.325,336.872 147.858 C 336.954 148.391,337.085 149.117,337.164 149.470 C 337.243 149.824,337.358 150.455,337.419 150.873 C 337.481 151.292,337.631 152.165,337.752 152.815 C 337.873 153.465,338.022 154.634,338.082 155.413 C 338.142 156.191,338.290 157.421,338.410 158.145 C 338.531 158.869,338.668 160.042,338.714 160.753 C 338.791 161.952,338.846 162.365,339.123 163.855 C 339.179 164.159,339.243 164.973,339.263 165.664 C 339.455 172.071,339.462 172.721,339.384 178.475 C 339.274 186.689,339.074 188.137,337.872 189.453 C 337.137 190.256,335.913 190.500,334.970 190.030 C 333.623 189.358,331.204 185.724,329.590 181.946 C 328.874 180.270,328.490 179.341,328.264 178.734 C 328.127 178.368,327.877 177.704,327.707 177.257 C 327.237 176.018,326.170 172.857,325.901 171.903 C 325.769 171.436,325.572 170.738,325.463 170.353 C 325.354 169.967,325.135 169.236,324.976 168.728 C 324.215 166.288,324.202 166.224,324.202 164.888 C 324.201 163.158,324.317 162.862,325.730 160.954 C 329.764 155.511,330.607 150.881,328.518 145.644 C 327.131 142.168,325.518 140.278,321.876 137.862 C 320.067 136.662,319.020 135.539,318.675 134.429 C 318.312 133.262,317.983 130.891,317.926 129.038 C 317.869 127.176,317.774 125.947,317.590 124.661 C 317.295 122.607,317.323 119.958,317.667 117.371 C 317.752 116.731,317.845 115.391,317.888 114.196 C 318.063 109.360,318.787 107.044,320.333 106.373 C 320.783 106.177,321.991 106.220,322.447 106.447 M305.857 115.328 C 306.217 115.556,306.761 116.136,306.942 116.485 C 307.259 117.098,307.270 117.259,307.334 122.134 C 307.368 124.713,307.413 126.923,307.434 127.044 C 307.584 127.904,307.854 130.283,307.920 131.327 C 307.964 132.018,308.096 133.181,308.213 133.912 C 308.467 135.499,308.489 135.681,308.583 137.013 C 308.624 137.582,308.740 138.512,308.842 139.081 C 308.944 139.649,309.078 140.629,309.141 141.259 C 309.265 142.509,309.345 143.073,309.510 143.855 C 309.569 144.137,309.683 144.907,309.764 145.565 C 309.844 146.224,309.992 147.165,310.092 147.656 C 310.192 148.148,310.312 148.845,310.357 149.206 C 310.438 149.845,310.996 152.737,311.352 154.366 C 311.450 154.813,311.567 155.461,311.612 155.806 C 311.688 156.386,311.914 157.408,312.397 159.350 C 312.503 159.777,312.654 160.408,312.731 160.753 C 313.329 163.411,313.744 165.063,314.348 167.177 C 314.504 167.726,314.686 168.390,314.751 168.654 C 314.868 169.122,315.054 169.759,315.563 171.423 C 315.699 171.870,315.865 172.452,315.931 172.716 C 316.122 173.474,317.049 176.437,317.445 177.552 C 317.560 177.877,317.721 178.359,317.802 178.623 C 318.045 179.416,318.684 181.104,319.605 183.386 C 320.337 185.198,320.354 185.267,320.358 186.487 C 320.366 188.740,319.179 189.581,316.440 189.263 C 315.337 189.135,314.835 189.002,310.135 187.596 C 309.505 187.407,308.542 187.119,307.993 186.955 C 307.445 186.791,306.697 186.561,306.332 186.445 C 305.966 186.329,305.318 186.137,304.892 186.019 C 304.466 185.902,303.801 185.715,303.415 185.605 C 303.029 185.495,302.298 185.287,301.791 185.144 C 300.707 184.838,298.710 184.238,297.766 183.934 C 297.401 183.816,296.803 183.642,296.437 183.546 C 295.671 183.345,294.770 183.089,293.410 182.685 C 292.882 182.528,292.001 182.266,291.453 182.103 C 290.905 181.940,290.306 181.769,290.124 181.723 C 289.941 181.677,289.409 181.524,288.942 181.382 C 288.475 181.240,287.661 180.996,287.133 180.839 C 285.554 180.369,283.926 179.876,283.219 179.652 C 282.854 179.537,282.339 179.388,282.075 179.323 C 281.811 179.257,281.229 179.092,280.783 178.956 C 278.751 178.335,278.375 178.222,277.681 178.026 C 276.397 177.663,275.638 177.441,274.802 177.184 C 274.355 177.047,273.773 176.880,273.509 176.814 C 273.016 176.690,272.373 176.494,270.083 175.773 C 266.239 174.561,265.067 173.066,264.390 168.507 C 264.327 168.080,264.194 167.382,264.094 166.956 C 263.995 166.529,263.861 165.865,263.797 165.479 C 263.733 165.093,263.585 164.362,263.468 163.854 C 263.352 163.346,263.202 162.618,263.136 162.237 C 263.069 161.855,262.937 161.207,262.841 160.797 C 262.745 160.387,262.613 159.686,262.548 159.239 C 262.483 158.793,262.349 158.062,262.249 157.615 C 262.149 157.168,262.001 156.348,261.920 155.793 C 261.838 155.238,261.701 154.473,261.616 154.095 C 260.795 150.462,261.104 148.851,262.982 146.979 C 263.991 145.973,265.582 144.689,273.221 138.715 C 274.050 138.067,275.857 136.640,277.238 135.544 C 278.619 134.448,280.198 133.199,280.746 132.767 C 282.141 131.670,289.726 125.672,291.739 124.074 C 292.211 123.700,293.544 122.653,294.701 121.748 C 295.858 120.844,297.868 119.256,299.168 118.220 C 303.015 115.157,303.057 115.133,304.601 115.124 C 305.496 115.119,305.539 115.126,305.857 115.328 M100.826 123.396 C 98.743 123.582,95.044 124.749,92.987 125.870 C 87.024 129.117,82.987 135.698,82.664 142.699 C 82.638 143.267,82.573 144.215,82.520 144.803 C 82.454 145.531,82.444 146.087,82.488 146.539 C 82.523 146.904,82.604 147.901,82.667 148.754 C 83.095 154.579,85.780 160.156,89.652 163.263 C 91.983 165.133,94.779 166.544,97.577 167.262 C 99.129 167.660,99.251 167.684,100.720 167.872 C 103.214 168.192,103.921 168.223,107.698 168.183 C 119.677 168.057,126.445 168.020,128.484 168.070 C 133.822 168.200,153.377 168.060,155.061 167.879 C 158.761 167.481,162.531 165.858,165.747 163.278 C 168.796 160.831,171.435 156.314,172.090 152.421 C 172.153 152.041,172.288 151.327,172.390 150.833 C 172.791 148.881,172.843 141.862,172.469 140.188 C 172.414 139.945,172.278 139.330,172.166 138.822 C 171.281 134.803,169.526 131.455,166.919 128.810 C 164.110 125.961,159.492 123.724,155.732 123.392 C 154.704 123.301,101.845 123.305,100.826 123.396 M46.176 132.615 C 49.952 133.437,53.457 136.969,54.564 141.065 C 54.876 142.219,54.941 142.745,55.090 145.320 C 55.134 146.072,55.199 147.168,55.236 147.757 C 55.324 149.151,55.323 151.272,55.235 153.074 C 55.196 153.866,55.129 155.261,55.085 156.175 C 54.844 161.245,53.375 164.484,50.155 167.046 C 47.152 169.436,42.621 169.432,39.471 167.036 C 37.064 165.206,35.278 162.129,34.917 159.188 C 34.780 158.076,34.776 142.811,34.913 141.676 C 35.431 137.361,38.818 133.271,42.506 132.509 C 43.261 132.352,45.233 132.409,46.176 132.615 M378.918 132.811 C 378.390 132.909,377.526 133.056,376.998 133.138 C 376.470 133.220,375.673 133.368,375.226 133.466 C 374.779 133.565,373.982 133.712,373.454 133.793 C 372.926 133.874,372.195 134.006,371.829 134.088 C 371.464 134.169,370.693 134.303,370.116 134.386 C 369.539 134.469,368.692 134.618,368.233 134.715 C 367.774 134.813,367.150 134.934,366.845 134.982 C 364.008 135.438,361.829 136.353,361.172 137.364 C 360.461 138.458,360.319 139.299,360.673 140.325 C 361.126 141.639,361.711 142.215,363.061 142.681 C 364.177 143.065,364.636 143.027,368.211 142.254 C 368.658 142.158,369.461 142.012,369.996 141.930 C 370.531 141.848,371.329 141.699,371.769 141.599 C 372.208 141.499,372.834 141.379,373.159 141.332 C 373.483 141.285,374.198 141.152,374.746 141.037 C 375.294 140.922,376.125 140.773,376.592 140.705 C 377.059 140.638,377.890 140.489,378.438 140.374 C 378.987 140.259,379.801 140.097,380.247 140.014 C 383.400 139.429,385.324 137.374,384.632 135.334 C 383.856 133.048,382.020 132.237,378.918 132.811 M108.752 136.465 C 112.035 136.831,115.124 139.761,115.870 143.216 C 116.263 145.036,116.090 148.788,115.539 150.415 C 114.514 153.442,111.527 155.945,108.400 156.398 C 103.793 157.065,99.457 154.666,98.134 150.718 C 97.240 148.049,97.459 143.412,98.586 141.171 C 100.447 137.466,103.802 135.913,108.752 136.465 M154.313 136.464 C 156.201 136.672,157.590 137.427,159.281 139.165 C 161.369 141.313,161.795 142.936,161.573 147.896 C 161.425 151.196,161.002 152.240,159.035 154.152 C 156.904 156.224,154.861 156.817,151.039 156.472 C 147.509 156.154,144.266 152.920,143.838 149.291 C 143.731 148.385,143.789 143.738,143.913 143.253 C 144.499 140.957,145.397 139.536,147.139 138.150 C 148.935 136.721,151.393 136.143,154.313 136.464 M248.735 150.381 C 249.502 150.653,250.497 151.587,250.906 152.420 C 251.136 152.887,251.494 154.394,251.913 156.652 C 252.011 157.178,252.190 158.042,252.312 158.572 C 252.776 160.597,253.060 162.002,253.171 162.821 C 253.234 163.288,253.383 164.102,253.502 164.630 C 253.998 166.829,254.106 167.324,254.245 168.027 C 254.325 168.433,254.475 169.180,254.578 169.688 C 254.765 170.613,254.920 171.501,255.172 173.085 C 255.749 176.708,254.714 178.345,251.578 178.772 C 250.949 178.858,250.201 178.977,249.917 179.037 C 249.633 179.097,248.835 179.211,248.145 179.292 C 247.454 179.372,246.441 179.520,245.893 179.621 C 245.344 179.722,244.290 179.854,243.550 179.914 C 242.810 179.974,241.613 180.129,240.892 180.259 C 239.384 180.530,235.900 180.617,234.779 180.411 C 226.525 178.893,221.462 170.830,223.633 162.661 C 225.232 156.647,230.092 152.585,236.695 151.745 C 237.058 151.699,237.839 151.567,238.430 151.451 C 239.021 151.336,240.020 151.186,240.650 151.119 C 241.279 151.051,242.143 150.929,242.570 150.846 C 245.978 150.184,247.793 150.048,248.735 150.381 M363.920 180.766 C 360.531 181.630,359.995 185.514,362.985 187.544 C 363.220 187.704,364.559 188.490,365.960 189.292 C 368.559 190.779,370.520 191.928,372.494 193.121 C 373.103 193.489,374.187 194.143,374.903 194.574 C 377.445 196.104,378.822 196.420,380.379 195.830 C 382.140 195.162,383.019 193.375,382.380 191.763 C 381.734 190.135,381.265 189.785,374.525 185.896 C 373.692 185.416,372.529 184.719,371.940 184.347 C 367.059 181.267,365.206 180.439,363.920 180.766 M115.665 183.718 C 113.279 184.067,112.281 185.374,112.281 188.148 C 112.281 191.010,113.276 192.261,116.025 192.854 C 116.930 193.049,144.656 193.056,145.546 192.862 C 148.293 192.259,149.505 190.551,149.229 187.669 C 149.004 185.311,147.792 184.051,145.436 183.723 C 144.777 183.632,116.289 183.626,115.665 183.718 M254.975 206.424 C 256.114 206.771,257.318 208.079,257.832 209.526 C 257.987 209.964,258.568 212.116,258.668 212.627 C 258.716 212.871,258.984 213.979,259.264 215.091 C 259.544 216.203,259.842 217.482,259.926 217.934 C 260.011 218.386,260.174 219.138,260.289 219.605 C 260.404 220.072,260.520 220.587,260.546 220.749 C 260.573 220.912,260.722 221.577,260.878 222.226 C 261.571 225.112,262.039 227.197,262.262 228.392 C 262.386 229.055,262.532 229.784,263.065 232.405 C 263.590 234.986,263.536 236.479,262.883 237.428 C 261.729 239.105,260.080 239.616,255.824 239.616 C 251.363 239.616,249.500 238.953,246.898 236.441 C 244.409 234.037,243.272 231.748,242.828 228.244 C 242.763 227.737,242.629 226.840,242.529 226.251 C 242.222 224.440,242.061 217.875,242.276 215.950 C 242.720 211.986,245.892 208.055,249.658 206.802 C 250.154 206.637,251.487 206.376,252.280 206.288 C 252.917 206.217,254.568 206.301,254.975 206.424 M156.655 227.875 C 160.491 227.795,166.751 227.911,168.971 228.103 C 176.828 228.783,185.205 237.599,186.049 246.077 C 186.114 246.727,186.272 247.990,186.401 248.883 L 186.635 250.508 186.657 280.746 C 186.671 301.455,186.654 311.197,186.601 311.661 C 185.957 317.307,182.214 322.355,176.961 324.661 C 174.009 325.957,171.085 326.268,163.375 326.107 C 161.428 326.066,160.082 326.075,158.981 326.136 C 157.859 326.198,154.894 326.215,148.865 326.193 C 144.174 326.176,139.854 326.169,139.265 326.179 C 138.150 326.196,137.017 326.197,128.263 326.191 C 125.359 326.189,118.315 326.185,112.608 326.183 C 87.055 326.173,88.749 326.265,87.239 324.817 C 86.070 323.695,85.893 323.378,84.387 319.697 C 83.214 316.831,82.654 315.727,80.083 311.205 C 75.763 303.609,75.290 302.519,74.934 299.354 C 74.796 298.123,74.794 261.177,74.932 260.381 C 75.126 259.265,75.532 258.342,76.676 256.415 C 77.956 254.261,79.448 251.120,79.746 249.954 C 79.793 249.771,79.913 249.369,80.014 249.060 C 81.445 244.670,81.264 239.970,79.453 234.517 C 78.446 231.487,78.507 230.122,79.700 228.940 C 80.911 227.739,77.121 227.854,114.159 227.895 C 131.399 227.913,146.336 227.904,147.351 227.873 C 148.366 227.842,150.476 227.838,152.040 227.864 C 153.603 227.891,155.680 227.896,156.655 227.875 M59.792 228.172 C 63.239 228.605,67.399 231.594,69.280 234.991 C 72.001 239.903,71.545 247.217,68.262 251.305 C 67.190 252.639,64.964 254.626,62.168 256.745 C 58.296 259.677,56.013 261.866,54.224 264.360 C 52.912 266.190,51.283 269.055,50.556 270.814 C 50.177 271.731,49.474 273.622,49.474 273.725 C 49.474 273.763,49.374 274.087,49.252 274.445 C 48.946 275.341,48.401 277.460,48.257 278.309 C 48.192 278.695,48.057 279.400,47.958 279.876 C 47.651 281.343,47.613 282.196,47.648 286.706 L 47.680 290.899 47.926 292.007 C 48.157 293.046,48.173 293.203,48.177 294.554 C 48.183 296.285,48.130 296.437,47.199 297.384 C 46.320 298.277,45.929 298.473,43.862 299.058 C 41.317 299.778,39.696 300.397,37.659 301.427 C 36.620 301.951,36.083 302.262,33.903 303.595 C 32.928 304.192,32.797 304.228,31.576 304.226 C 29.421 304.222,28.549 303.205,27.287 299.222 C 27.072 298.543,26.872 297.872,26.844 297.729 C 26.815 297.587,26.695 297.139,26.576 296.733 C 26.381 296.061,26.278 295.615,25.844 293.557 C 25.766 293.192,25.652 292.212,25.589 291.379 C 25.526 290.546,25.391 289.334,25.288 288.684 C 24.844 285.868,24.842 277.338,25.286 274.728 C 25.389 274.119,25.525 272.849,25.589 271.906 C 25.652 270.963,25.748 269.950,25.802 269.654 C 25.857 269.358,25.989 268.634,26.096 268.045 C 26.203 267.456,26.375 266.592,26.478 266.125 C 26.581 265.658,26.742 264.861,26.837 264.353 C 27.878 258.791,30.563 251.692,33.567 246.557 C 38.213 238.618,45.073 232.341,52.612 229.130 C 54.750 228.219,57.375 227.869,59.792 228.172 M239.238 243.676 C 239.806 243.783,240.585 244.172,241.768 244.937 C 244.088 246.438,245.741 247.236,247.997 247.946 C 249.264 248.344,251.325 248.818,252.403 248.959 C 254.967 249.293,256.070 250.707,255.633 253.097 C 255.500 253.830,254.753 255.195,253.320 257.326 C 246.736 267.115,237.602 273.752,226.546 276.782 C 224.243 277.413,222.795 277.678,220.823 277.829 C 220.498 277.853,219.618 277.980,218.867 278.110 L 217.500 278.346 213.513 278.345 C 209.578 278.344,209.507 278.341,208.086 278.143 C 207.294 278.033,206.114 277.891,205.464 277.828 C 204.053 277.692,203.963 277.678,203.064 277.457 C 202.679 277.362,202.022 277.215,201.606 277.130 C 198.373 276.475,196.609 274.859,196.182 272.160 C 196.010 271.071,196.046 256.694,196.222 256.123 C 196.541 255.090,197.433 254.057,198.302 253.716 C 199.262 253.339,200.899 253.470,204.430 254.205 C 206.301 254.594,213.963 254.674,215.765 254.323 C 216.192 254.240,216.972 254.091,217.500 253.991 C 222.811 252.991,227.526 250.600,234.115 245.567 C 236.574 243.688,237.500 243.346,239.238 243.676 M119.402 250.151 C 110.535 250.635,101.634 256.643,97.936 264.640 C 96.670 267.379,96.305 268.682,96.617 269.351 C 97.014 270.204,97.517 270.334,100.422 270.334 C 101.621 270.334,103.716 270.371,105.077 270.416 C 108.876 270.543,109.309 270.389,111.032 268.303 C 114.369 264.264,117.420 262.804,122.171 262.975 C 126.016 263.113,128.781 264.450,131.436 267.454 C 131.698 267.752,132.061 268.088,132.241 268.203 L 132.569 268.411 132.847 268.254 C 133.000 268.168,133.467 267.732,133.885 267.285 C 137.136 263.806,140.397 262.581,145.246 263.019 C 148.535 263.316,151.271 264.797,153.679 267.583 C 154.671 268.730,154.960 268.997,155.465 269.233 C 156.503 269.716,156.369 269.706,161.861 269.706 L 166.845 269.706 167.362 269.522 C 168.246 269.206,168.245 268.874,167.352 266.610 C 163.765 257.520,156.442 251.828,146.354 250.290 C 143.851 249.909,139.827 250.226,137.195 251.012 C 134.141 251.924,134.029 251.947,132.504 251.947 C 131.271 251.948,130.846 251.889,129.814 251.578 C 125.861 250.385,122.801 249.966,119.402 250.151 M105.409 273.508 C 104.637 273.539,102.693 273.569,101.089 273.575 C 97.101 273.590,96.300 273.789,95.742 274.903 C 94.996 276.394,95.515 277.661,97.065 278.136 C 97.733 278.341,108.692 278.344,110.282 278.139 C 110.851 278.066,111.958 277.976,112.743 277.938 C 115.222 277.818,115.680 277.541,115.665 276.168 C 115.649 274.714,115.208 274.440,112.530 274.215 C 111.207 274.104,110.401 273.981,108.916 273.662 C 108.042 273.474,107.202 273.437,105.409 273.508 M102.381 282.368 C 96.924 282.420,96.875 282.428,96.545 283.290 C 96.247 284.071,97.985 288.143,99.793 290.899 C 105.874 300.170,118.244 304.474,128.854 301.012 C 131.304 300.212,133.580 300.188,135.789 300.939 C 136.083 301.040,136.711 301.208,137.185 301.314 C 137.659 301.420,138.279 301.569,138.564 301.644 C 140.505 302.161,143.930 302.327,146.428 302.024 C 155.804 300.890,163.867 294.638,167.367 285.786 C 168.624 282.608,168.836 282.718,161.529 282.754 C 155.079 282.785,155.722 282.609,153.453 284.958 C 151.488 286.991,150.702 287.609,149.136 288.354 C 146.036 289.828,141.567 289.860,138.322 288.433 C 136.828 287.775,135.680 286.927,134.059 285.281 C 132.448 283.645,132.666 283.640,130.924 285.352 C 129.112 287.133,128.349 287.711,126.915 288.388 C 123.867 289.827,119.583 289.843,116.448 288.428 C 114.573 287.581,113.895 287.022,110.757 283.732 C 109.407 282.316,109.326 282.303,102.381 282.368 " stroke="none" fill="#ffffff" fill-rule="evenodd"/></g></svg>