<svg id="svg" xmlns="http://www.w3.org/2000/svg" xmlns:xlink="http://www.w3.org/1999/xlink" width="400" height="160.0358021928843" viewBox="0, 0, 400,160.0358021928843"><g id="svgg"><path id="path0" d="M22.063 20.129 C 20.225 20.664,18.909 22.104,18.475 24.055 C 18.169 25.429,18.796 26.843,20.438 28.484 C 21.567 29.612,21.481 29.016,21.481 35.774 C 21.481 42.484,21.571 41.847,20.358 43.713 C 19.887 44.438,19.179 45.663,18.784 46.436 C 17.792 48.378,17.510 48.658,16.093 49.104 C 11.115 50.670,9.023 55.234,9.840 62.743 C 10.342 67.355,12.308 69.950,16.324 71.303 C 17.644 71.747,17.869 71.994,18.931 74.155 C 21.463 79.311,24.691 82.461,29.745 84.709 C 31.803 85.624,32.188 86.062,31.521 86.729 C 31.188 87.063,31.039 87.076,26.941 87.124 C 22.893 87.172,21.913 87.314,19.775 88.161 C 11.925 91.271,6.791 100.460,6.298 112.285 C 6.130 116.309,7.375 121.828,9.335 125.747 L 9.890 126.857 9.944 129.148 C 10.027 132.705,10.787 134.727,12.885 136.970 C 15.593 139.865,21.621 141.245,22.853 139.252 C 23.799 137.721,22.891 136.542,20.649 136.389 C 18.094 136.214,16.984 135.759,15.606 134.324 C 11.928 130.491,13.773 124.283,18.914 123.190 C 22.858 122.351,25.895 124.735,27.661 130.055 C 28.435 132.386,28.754 132.945,29.654 133.547 C 30.820 134.325,28.901 134.258,50.009 134.258 L 68.673 134.258 69.772 134.036 C 74.205 133.138,77.256 130.334,78.372 126.131 C 78.650 125.087,78.768 122.976,78.800 118.461 C 78.830 114.387,78.904 114.310,82.256 114.847 C 83.696 115.078,87.909 115.045,89.271 114.793 C 97.297 113.308,102.640 109.222,106.478 101.633 C 107.632 99.352,107.826 99.155,109.308 98.759 C 113.276 97.697,114.888 95.385,114.808 90.870 C 114.665 82.806,113.135 80.096,107.875 78.585 C 106.637 78.229,106.269 77.677,106.182 76.040 L 106.126 75.012 106.499 74.639 L 106.871 74.267 107.609 74.312 C 108.191 74.347,108.846 74.508,110.718 75.077 C 112.023 75.473,113.372 75.880,113.717 75.983 C 115.590 76.539,120.188 77.883,120.922 78.089 C 121.390 78.221,122.215 78.465,122.757 78.632 C 123.298 78.800,124.446 79.141,125.308 79.391 C 126.169 79.641,127.277 79.962,127.769 80.106 C 128.261 80.249,129.388 80.572,130.272 80.824 C 131.511 81.177,132.139 81.412,133.008 81.851 C 136.707 83.718,138.713 82.261,139.534 77.113 C 140.009 74.135,140.183 67.923,139.853 65.734 C 139.779 65.246,139.719 64.590,139.719 64.275 C 139.718 63.961,139.677 63.457,139.627 63.156 C 139.577 62.855,139.434 61.904,139.309 61.043 C 138.935 58.474,138.914 58.346,138.770 57.736 C 138.694 57.413,138.575 56.867,138.507 56.523 C 138.295 55.461,137.844 53.512,137.659 52.853 C 137.561 52.508,137.296 51.562,137.068 50.750 C 135.589 45.465,132.286 38.364,130.526 36.685 C 128.595 34.844,126.427 35.331,124.659 38.003 C 124.110 38.833,123.213 39.675,121.189 41.261 C 120.279 41.974,117.964 43.807,116.044 45.335 C 114.124 46.862,112.271 48.332,111.927 48.600 C 111.582 48.868,110.253 49.916,108.973 50.929 C 102.648 55.937,103.471 55.448,100.470 55.978 C 100.027 56.057,98.899 56.259,97.964 56.428 C 97.028 56.598,95.855 56.797,95.356 56.872 C 91.862 57.393,90.142 58.160,88.376 59.980 C 83.076 65.447,86.220 74.739,93.703 75.724 C 95.103 75.909,95.393 76.135,96.143 77.629 C 96.964 79.264,96.893 79.700,95.590 81.049 C 93.670 83.037,92.825 85.427,92.941 88.543 C 92.969 89.294,93.017 90.582,93.048 91.405 C 93.120 93.339,93.119 93.342,91.528 94.921 C 88.414 98.011,84.844 98.697,80.175 97.101 C 78.747 96.613,78.411 96.278,77.428 94.367 C 75.670 90.945,73.228 88.844,69.813 87.816 C 68.056 87.287,66.989 87.163,63.638 87.094 C 60.477 87.029,60.338 87.014,59.991 86.702 C 59.358 86.132,59.923 85.526,61.760 84.803 C 67.129 82.690,71.340 78.340,73.800 72.365 C 74.488 70.695,74.668 70.471,76.035 69.584 C 78.902 67.722,79.692 65.606,79.690 59.790 L 79.689 56.433 79.445 55.467 C 78.681 52.442,77.682 51.097,75.284 49.865 C 73.734 49.069,73.490 48.823,72.649 47.207 C 71.597 45.186,70.469 43.512,68.743 41.412 C 68.346 40.929,67.931 40.365,67.821 40.159 L 67.621 39.785 67.621 34.773 C 67.621 28.931,67.517 29.526,68.756 28.316 C 70.664 26.453,71.039 24.368,69.849 22.247 C 68.116 19.159,63.344 19.309,61.805 22.500 C 60.749 24.689,60.991 26.105,62.741 27.983 C 63.840 29.162,63.817 29.074,63.817 32.187 C 63.817 35.406,63.715 35.713,62.636 35.713 C 62.140 35.713,62.030 35.666,60.325 34.718 C 56.340 32.505,53.543 31.628,48.064 30.876 C 46.308 30.635,41.903 30.857,39.830 31.291 C 36.502 31.988,34.590 32.625,31.819 33.963 C 30.409 34.644,29.750 35.013,27.754 36.236 C 26.529 36.987,25.620 36.863,25.352 35.907 C 25.224 35.450,25.273 29.797,25.408 29.413 C 25.479 29.213,25.832 28.741,26.239 28.303 C 27.536 26.906,28.093 25.405,27.815 24.058 C 27.226 21.213,24.571 19.399,22.063 20.129 M143.075 32.192 C 142.547 32.471,142.540 32.479,140.104 35.892 C 138.130 38.656,137.923 39.122,138.346 39.845 C 139.022 41.004,140.184 40.734,141.302 39.159 C 141.616 38.716,142.305 37.760,142.832 37.034 C 144.998 34.054,145.217 33.650,145.001 33.034 C 144.709 32.206,143.800 31.808,143.075 32.192 M49.631 35.000 C 62.663 37.193,72.107 48.028,72.095 60.774 C 72.085 72.362,66.223 80.676,57.111 82.028 C 55.960 82.198,37.242 82.237,35.730 82.071 C 30.211 81.467,26.671 79.387,23.887 75.110 C 22.028 72.255,21.933 71.427,23.312 70.102 C 25.858 67.657,26.566 65.600,26.647 60.416 C 26.733 54.945,26.149 53.136,23.436 50.469 L 22.376 49.427 22.376 48.743 C 22.376 47.748,23.077 46.476,24.824 44.305 C 28.950 39.175,36.414 35.244,42.828 34.823 C 44.600 34.707,48.489 34.808,49.631 35.000 M129.369 42.634 C 130.331 43.264,132.580 48.933,133.796 53.793 C 134.209 55.441,134.623 57.362,135.060 59.655 C 135.177 60.266,135.392 61.762,135.550 63.057 C 135.622 63.647,135.730 64.473,135.791 64.891 C 135.940 65.916,136.005 73.084,135.875 74.061 C 135.468 77.109,133.914 76.636,132.217 72.947 C 130.392 68.981,129.623 65.619,130.319 64.651 C 131.174 63.461,131.566 62.782,131.797 62.098 C 132.650 59.564,131.630 56.824,129.237 55.225 C 127.851 54.299,127.455 53.518,127.456 51.702 C 127.456 51.400,127.392 50.559,127.313 49.834 C 127.183 48.629,127.183 48.399,127.313 47.137 C 127.392 46.378,127.456 45.468,127.456 45.116 C 127.456 43.116,128.345 41.963,129.369 42.634 M122.792 46.322 C 122.945 46.496,123.074 46.647,123.080 46.658 C 123.085 46.668,123.123 47.744,123.164 49.049 C 123.205 50.354,123.301 51.945,123.379 52.584 C 123.456 53.224,123.558 54.088,123.604 54.504 C 123.723 55.563,123.923 56.960,124.238 58.939 C 124.964 63.506,126.454 69.204,127.893 72.922 C 128.479 74.436,128.504 74.870,128.034 75.340 L 127.717 75.657 127.027 75.604 C 126.625 75.573,125.852 75.405,125.173 75.202 C 122.485 74.395,120.199 73.723,116.849 72.755 C 115.668 72.414,114.399 72.038,114.030 71.921 C 113.661 71.803,112.231 71.377,110.853 70.974 C 107.264 69.925,107.093 69.852,106.603 69.176 C 106.282 68.733,106.197 68.354,104.940 61.750 C 104.648 60.213,104.759 59.473,105.381 58.819 C 105.748 58.433,106.211 58.060,112.866 52.807 C 114.762 51.310,117.178 49.403,118.237 48.567 C 119.295 47.731,120.407 46.854,120.708 46.618 C 121.653 45.875,122.317 45.781,122.792 46.322 M39.606 49.446 C 35.419 50.535,33.284 53.462,33.271 58.134 C 33.257 63.294,35.833 66.471,40.559 67.120 C 41.387 67.234,58.281 67.244,61.087 67.133 C 66.517 66.917,69.371 63.756,69.365 57.966 C 69.362 54.028,67.803 51.298,64.757 49.890 C 63.248 49.193,63.964 49.229,51.510 49.233 L 40.412 49.237 39.606 49.446 M18.578 52.996 C 20.156 53.286,21.590 54.716,22.073 56.478 C 22.309 57.337,22.314 62.925,22.081 63.853 C 20.936 68.399,15.547 68.616,14.361 64.164 C 14.137 63.322,14.176 56.638,14.410 55.854 C 15.014 53.825,16.722 52.654,18.578 52.996 M152.428 52.952 C 149.922 53.304,146.010 54.073,145.402 54.334 C 144.053 54.912,144.127 56.635,145.518 57.046 C 145.918 57.164,146.062 57.146,148.400 56.703 C 149.754 56.447,151.264 56.164,151.757 56.075 C 153.248 55.806,153.908 55.402,154.122 54.627 C 154.350 53.801,153.359 52.822,152.428 52.952 M187.982 58.868 C 182.961 70.755,179.531 78.874,174.233 91.414 C 171.199 98.592,168.718 104.483,168.718 104.504 C 168.718 104.525,170.319 104.542,172.276 104.542 L 175.835 104.542 178.354 98.389 L 180.873 92.235 190.087 92.213 L 199.302 92.190 201.720 98.344 L 204.137 104.498 208.267 104.521 C 210.538 104.534,212.397 104.512,212.397 104.473 C 212.397 104.435,207.546 92.925,201.619 78.896 C 190.941 53.627,190.838 53.390,190.580 53.363 L 190.319 53.336 187.982 58.868 M44.584 54.795 C 46.223 55.546,46.923 57.249,46.544 59.561 C 46.189 61.728,43.902 62.984,41.604 62.273 C 38.411 61.285,38.521 55.700,41.754 54.629 C 42.378 54.422,43.976 54.516,44.584 54.795 M62.851 54.798 C 63.945 55.299,64.686 56.358,64.812 57.601 C 65.138 60.819,63.952 62.475,61.319 62.475 C 59.598 62.475,58.458 61.732,57.954 60.282 C 57.713 59.592,57.740 57.416,57.997 56.730 C 58.687 54.886,61.017 53.959,62.851 54.798 M344.059 54.834 C 328.746 55.978,317.944 70.587,321.288 85.631 C 324.463 99.912,339.599 108.426,353.574 103.792 C 367.741 99.094,374.829 83.296,368.774 69.914 C 364.409 60.268,354.256 54.072,344.059 54.834 M296.174 55.144 C 289.280 55.846,284.189 60.030,283.146 65.853 C 282.239 70.910,283.893 75.188,287.894 78.136 C 289.861 79.585,291.254 80.271,296.174 82.210 C 302.243 84.603,304.653 86.480,305.399 89.395 C 306.978 95.568,300.767 99.991,292.818 98.354 C 290.071 97.789,285.909 95.925,284.108 94.454 C 283.896 94.281,283.712 94.154,283.698 94.172 C 283.651 94.235,280.554 99.738,280.526 99.810 C 280.477 99.933,281.993 100.865,283.509 101.645 C 298.195 109.204,313.083 103.737,313.034 90.803 C 313.007 83.614,309.945 80.035,300.711 76.399 C 292.770 73.272,290.350 71.274,290.357 67.849 C 290.371 61.148,298.979 59.441,308.839 64.183 C 309.380 64.444,309.856 64.659,309.897 64.662 C 309.976 64.668,312.553 59.378,312.553 59.208 C 312.553 59.016,310.424 57.904,308.690 57.192 C 304.706 55.554,299.888 54.766,296.174 55.144 M210.174 55.400 C 210.354 55.914,231.968 106.776,232.007 106.778 C 232.060 106.780,253.838 55.508,253.838 55.381 C 253.838 55.344,251.934 55.315,249.608 55.316 L 245.379 55.317 238.892 72.285 C 235.324 81.617,232.384 89.264,232.358 89.279 C 232.332 89.294,229.250 81.659,225.509 72.311 L 218.707 55.315 214.425 55.315 C 211.752 55.314,210.155 55.346,210.174 55.400 M263.325 79.928 L 263.325 104.542 266.905 104.542 L 270.486 104.542 270.486 79.928 L 270.486 55.314 266.905 55.314 L 263.325 55.314 263.325 79.928 M99.888 60.192 C 100.166 60.336,100.549 60.794,100.637 61.087 C 100.711 61.333,101.303 64.156,101.454 64.981 C 101.522 65.350,101.724 66.337,101.903 67.174 C 102.088 68.043,102.250 69.089,102.279 69.612 L 102.330 70.528 101.937 70.918 C 101.504 71.347,101.641 71.314,98.546 71.740 C 98.029 71.811,97.243 71.920,96.800 71.983 C 92.585 72.579,89.587 70.365,89.558 66.637 C 89.532 63.166,91.501 61.193,95.637 60.545 C 96.178 60.461,97.044 60.320,97.561 60.232 C 98.752 60.031,99.549 60.017,99.888 60.192 M347.859 61.852 C 361.948 63.466,368.491 80.842,359.191 91.942 C 353.841 98.327,344.407 100.000,337.157 95.850 C 325.094 88.946,325.050 71.126,337.078 64.014 C 340.100 62.227,344.111 61.423,347.859 61.852 M190.378 69.366 C 190.378 69.458,196.693 85.585,196.836 85.858 C 196.914 86.007,196.569 86.015,190.169 86.015 L 183.420 86.015 186.810 77.733 C 188.674 73.178,190.199 69.412,190.199 69.364 C 190.199 69.316,190.239 69.277,190.289 69.277 C 190.338 69.277,190.378 69.317,190.378 69.366 M145.670 72.260 C 144.731 72.628,144.385 73.437,144.810 74.270 C 145.051 74.742,145.230 74.871,147.326 76.084 C 148.286 76.639,149.394 77.296,149.787 77.544 C 151.445 78.585,152.508 78.656,153.052 77.763 C 153.702 76.698,153.319 76.182,150.772 74.693 C 150.034 74.262,148.932 73.606,148.324 73.235 C 146.679 72.233,146.195 72.055,145.670 72.260 M46.569 73.393 C 44.732 73.672,44.495 76.318,46.248 76.974 C 46.916 77.224,58.045 77.256,58.780 77.010 C 60.300 76.502,60.434 74.216,58.984 73.538 C 58.556 73.338,47.762 73.212,46.569 73.393 M102.510 82.678 C 103.189 83.071,103.347 83.528,104.409 88.163 C 104.539 88.729,104.701 89.434,104.769 89.729 C 105.238 91.761,105.460 92.982,105.501 93.767 L 105.549 94.672 105.221 95.035 C 104.447 95.892,101.722 96.044,100.163 95.317 C 99.482 95.000,98.369 93.924,97.994 93.220 C 97.039 91.430,96.815 86.635,97.607 84.956 C 98.490 83.085,101.110 81.868,102.510 82.678 M68.606 91.329 C 72.110 92.375,74.294 95.240,74.753 99.396 C 74.962 101.293,74.923 124.631,74.709 125.397 C 74.054 127.740,72.332 129.475,70.038 130.102 C 68.992 130.388,36.843 130.518,35.832 130.241 C 35.226 130.074,34.674 129.389,34.198 128.211 C 33.687 126.947,33.166 125.901,32.330 124.457 C 30.037 120.498,30.208 121.514,30.208 111.882 C 30.208 103.042,30.137 103.894,30.997 102.399 C 32.815 99.238,33.062 97.263,32.073 93.809 C 31.618 92.221,31.798 91.344,32.616 91.176 C 33.326 91.030,68.099 91.178,68.606 91.329 M24.662 91.345 C 27.005 91.955,28.582 94.150,28.582 96.800 C 28.582 99.515,28.055 100.319,24.435 103.127 C 20.544 106.145,18.436 111.822,19.378 116.745 C 19.724 118.556,19.415 119.044,17.588 119.572 C 16.578 119.864,14.857 120.653,13.938 121.245 C 12.783 121.989,11.903 121.613,11.372 120.146 C 9.565 115.153,10.060 106.621,12.482 101.005 C 15.171 94.768,20.767 90.330,24.662 91.345 M96.285 97.558 C 96.494 97.653,96.837 97.849,97.046 97.992 C 97.984 98.636,99.419 99.212,100.649 99.438 C 101.775 99.646,101.921 99.701,102.207 100.027 C 102.834 100.741,102.489 101.639,100.661 104.050 C 96.650 109.342,89.993 111.973,82.882 111.079 C 78.805 110.566,78.720 110.455,78.720 105.616 C 78.720 101.145,78.813 101.021,81.738 101.588 C 85.898 102.396,89.767 101.338,93.719 98.311 C 94.990 97.339,95.482 97.194,96.285 97.558 M46.767 100.123 C 43.543 100.762,40.732 102.938,39.365 105.855 C 38.354 108.014,38.462 108.123,41.604 108.123 L 43.652 108.123 44.012 107.876 C 44.210 107.741,44.598 107.363,44.873 107.035 C 46.039 105.652,46.986 105.216,48.825 105.215 C 50.630 105.213,51.486 105.566,52.716 106.819 C 53.322 107.436,53.218 107.452,54.095 106.611 C 56.289 104.510,59.327 104.603,61.546 106.839 C 62.584 107.886,62.531 107.871,65.161 107.836 C 67.680 107.803,67.643 107.819,67.321 106.890 C 65.484 101.595,60.051 98.868,54.528 100.470 C 53.559 100.751,52.959 100.752,51.999 100.476 C 50.242 99.971,48.222 99.834,46.767 100.123 M40.546 109.371 C 38.741 109.431,38.398 109.586,38.398 110.341 C 38.398 111.256,38.539 111.288,42.331 111.227 C 46.332 111.162,46.543 111.120,46.543 110.398 C 46.543 109.924,46.313 109.737,45.603 109.635 C 45.258 109.585,44.594 109.486,44.126 109.414 C 43.659 109.342,42.994 109.292,42.649 109.303 C 42.305 109.314,41.358 109.344,40.546 109.371 M41.083 112.871 C 39.975 112.898,39.060 112.928,39.049 112.938 C 38.666 113.278,38.767 113.726,39.596 115.343 C 41.353 118.775,44.719 120.787,48.691 120.780 C 50.308 120.777,50.373 120.767,52.182 120.257 C 52.940 120.044,53.539 120.084,54.913 120.443 C 59.760 121.709,64.632 119.507,66.847 115.049 C 67.862 113.008,67.863 113.010,65.166 112.972 C 62.523 112.936,62.592 112.916,61.450 114.025 C 59.186 116.225,56.282 116.293,54.095 114.199 C 53.200 113.341,53.312 113.341,52.416 114.199 C 50.176 116.344,47.304 116.212,44.989 113.859 C 43.921 112.774,44.021 112.799,41.083 112.871 " stroke="none" fill="#000000" fill-rule="evenodd"></path></g></svg>